<?xml version="1.0" encoding="utf-8"?>
<!-- Generator: Adobe Illustrator 27.9.0, SVG Export Plug-In . SVG Version: 6.00 Build 0)  -->
<svg version="1.1" id="Layer_1" focusable="false" xmlns="http://www.w3.org/2000/svg" xmlns:xlink="http://www.w3.org/1999/xlink"
	 x="0px" y="0px" viewBox="0 0 800 800" style="enable-background:new 0 0 800 800;" xml:space="preserve">
<g>
	<path d="M666.1,0.8H133.9C60.7,0.8,0.8,60.7,0.8,133.9v532.3c0,73.2,59.9,133.1,133.1,133.1h532.3c73.2,0,133.1-59.9,133.1-133.1
		V133.9C799.2,60.7,739.3,0.8,666.1,0.8z M368.5,565.7l-34.5-107.9H213.1l-32.8,107.9h-71.8l122.1-380.9h88.7l123.8,380.9H368.5z
		 M701.5,447.5H517.2c1.7,49.7,40.7,71.2,84.8,71.2c32.2,0,55.4-4.5,76.3-12.4l10.2,48c-23.7,9.6-56.5,17-96.1,17
		c-89.3,0-141.9-54.8-141.9-139c0-76.3,46.3-148.1,134.5-148.1c89.3,0,118.7,73.5,118.7,133.9C703.7,431.2,702.6,441.3,701.5,447.5z
		"/>
	<path d="M273,240.1h-1.1c-5.7,22-11.3,48.6-18.1,71.2l-29.4,93.8h97.8l-30-93.8C284.9,288.2,278.7,262.2,273,240.1z"/>
	<path d="M581.1,331.7c-43,0-61,39-63.9,67.2h120.9C638.7,373.5,627.4,331.7,581.1,331.7z"/>
</g>
</svg>
