<svg id="uuid-a9705d1f-0736-4d24-b8e3-79b96e9d1fb5" xmlns="http://www.w3.org/2000/svg" viewBox="0 0 230 360"><defs><style>.uuid-f0fd757a-a183-440b-b329-b199881fa45a{stroke-width:0px;}</style></defs><path class="uuid-f0fd757a-a183-440b-b329-b199881fa45a" d="m.01,148.04c0-47.44,0-94.87.01-142.31C.03-.66-.69.02,5.68.02,41.64,0,77.61-.02,113.58.04c17.67.03,35.05,2.31,51.98,7.49,12.81,3.92,24.65,9.77,34.74,18.76,13.15,11.73,20.15,26.56,22.32,43.94,1.37,11.02.95,21.87-1.84,32.61-4.66,17.92-15.26,31.07-31.79,39.41-1.1.56-2.24,1.04-3.32,1.63-.78.42-1.51.95-2.26,1.43.86.33,1.71.7,2.58.98,18.22,5.85,31.46,17.19,38.8,35.09,3.26,7.96,4.65,16.33,4.89,24.84.31,10.69-.87,21.28-3.84,31.58-5.73,19.9-17.95,34.56-36.22,44.17-12.56,6.61-26.07,10.1-40.03,12.19-11.8,1.76-23.65,1.92-35.54,1.91-36.28-.06-72.55-.01-108.83-.03-5.73,0-5.19.49-5.2-5.25-.01-47.59,0-95.18,0-142.77Zm71.7,57.89c0,10.51-.02,21.01.01,31.52.01,3.53.07,3.6,3.55,3.6,14.04.02,28.09.17,42.13-.09,5.36-.1,10.83-.66,16.03-1.89,12.59-3,21.31-10.5,23.7-23.65,1.38-7.61.97-15.36-1.32-22.91-3.2-10.53-10.25-17.06-20.77-19.68-4.16-1.04-8.52-1.67-12.79-1.73-15.74-.21-31.48-.11-47.23-.08-3.21,0-3.28.09-3.29,3.41-.04,10.51-.01,21.01-.01,31.52Zm.09-116.69c0,10.34.03,20.67-.03,31.01-.01,2,.34,3.13,2.75,3.1,12.64-.16,25.28.02,37.91-.34,7.68-.22,15.35-1.13,22.55-4.28,7.85-3.43,12.96-9.25,15.17-17.51,1.95-7.28,1.82-14.62.28-21.97-2.19-10.46-8.49-17.34-18.55-20.49-4.66-1.46-9.57-2.64-14.42-2.84-14-.58-28.03-.62-42.04-.8-3.53-.05-3.6.06-3.62,3.57-.04,10.18-.01,20.37-.01,30.55Z"/><path class="uuid-f0fd757a-a183-440b-b329-b199881fa45a" d="m114.95,331.96c35.34,0,70.67,0,106.01,0,1.23,0,2.47-.05,3.7.02,3.48.22,5.16,1.72,5.24,5.13.14,5.87.13,11.74,0,17.61-.07,3.46-1.71,4.99-5.15,5.23-1.08.08-2.16.03-3.24.03-70.98,0-141.96,0-212.94,0-.31,0-.62,0-.93,0-6.47-.03-7.58-1.11-7.6-7.47-.02-4.48-.02-8.96,0-13.44.03-5.82,1.27-7.1,7.04-7.1,20.06-.02,40.12,0,60.18,0,15.89,0,31.79,0,47.68,0Z"/></svg>