<?xml version="1.0" encoding="utf-8"?>
<!-- Generator: Adobe Illustrator 27.9.0, SVG Export Plug-In . SVG Version: 6.00 Build 0)  -->
<svg version="1.1" id="Layer_1" xmlns="http://www.w3.org/2000/svg" xmlns:xlink="http://www.w3.org/1999/xlink" x="0px" y="0px"
	 viewBox="0 0 706.7 170.1" style="enable-background:new 0 0 706.7 170.1;" xml:space="preserve">
<style type="text/css">
	.st0{fill:none;}
</style>
<g>
	<path class="st0" d="M156.9,23.2c-13-1.1-20.7-1.6-57.6-1.6c-24.8,0-42.6,0.3-56,2.3c-18.9,2.7-26.4,13.4-26.4,32.5
		c0,29.4,1.8,48.3,11.4,65.8c11,20.3,30.8,28,53.3,28h7.1c29.6,0,43.9-14.4,51.9-26.9c3.9-6.4,7.3-13.4,9.1-22.3l1.4-5.7h8.2
		c18.2,0,33.9-14.8,33.9-33.7v-3.4C193.2,37,180,25.8,156.9,23.2z M115.8,104.7c-6.2,6.1-16.2,12.5-23,16.6
		c-1.8,1.1-4.1,1.8-6.8,1.8c-2.3,0-4.4-0.7-6.4-1.8c-6.8-4.1-16.8-10.5-23.2-16.6C46.8,95.6,39.3,84,39.3,70.6
		c0-14.5,10.5-27.5,26.4-27.5c9.4,0,16,4.8,20.3,11.4c4.8-6.6,11.2-11.4,20.5-11.4c15.7,0,26.6,12.9,26.6,27.5
		C133.1,84,125.6,95.6,115.8,104.7z M156.8,76.8c-3.6,0-5.7-2-5.7-4.8V46.3c0-2.8,2.1-4.8,5.7-4.8c11.6,0,18,6.9,18,17.8
		C174.8,70.2,168.4,76.8,156.8,76.8z"/>
	<path class="st0" d="M400.9,88.7c-7.2,0-12.6,5.8-12.5,13c0,7.9,5.5,14.4,12.5,14.4s12.3-6.5,12.3-14.4
		C413.2,94.5,408.1,88.7,400.9,88.7z"/>
	<path d="M354.6,19.7c0-9.3-3.7-17-14.9-17c-12.1,0-30,8.6-51.8,43.9c0.7-4.2,0.9-8.1,0.9-11.8c0-19-7.9-32.1-22.8-32.1
		c-22.5,0-34.6,31.8-34.6,85.7c0.2,63.3,10.2,80.4,29.4,80.4c16.3,0,24.6-11.2,25.5-39.7c11.6,25.3,30.4,39.7,44.4,39.7
		c9.1,0,16.5-7.4,16.5-17.2c0-14.4-14.6-45.3-33.9-71.3C335.4,61,354.6,36.2,354.6,19.7z"/>
	<path d="M677.7,65.1c-20,0-29,17.8-29,52.6c0,35.3,9.3,52.4,28.1,52.4s28.1-17.1,28.1-54.2C704.9,78.8,695.8,65.1,677.7,65.1z"/>
	<path d="M679.8,52.4c14.6,0,26.9-12.1,26.9-26.6c0-14.6-11.4-25.7-26.9-25.7c-15.6-0.1-26.2,11.1-26.2,25.4
		C653.6,40.3,665.2,52.4,679.8,52.4z"/>
	<path d="M613.4,0c-30.7,0-54.6,21-54.6,62.6V69c-14.9,3-21.4,9.8-21.4,23.5c0,11.8,6.5,18.7,21.6,21.6c0.5,44.2,6.3,56,23.5,56
		s24.2-12.5,25.3-54c24.6-2,33.9-8.9,33.9-25.7c0-15-9.3-21.2-33.9-23c-0.2-8.2-0.2-14.1-0.5-18.4c3.7,0.9,8.6,1.6,12.8,1.6
		c17.7,0,28.6-9.8,28.6-24.4C648.7,11.6,635.9,0,613.4,0z"/>
	<path d="M403.4,38.6c-34.1,0-58.1,26-58.1,63.4c0,38.1,24.9,66.9,58.1,66.9s58.1-28.8,58.1-66.9S437.6,38.6,403.4,38.6z
		 M400.9,116.1c-7,0-12.5-6.5-12.5-14.4c-0.1-7.2,5.3-13,12.5-13s12.3,5.8,12.3,13C413.2,109.6,407.9,116.1,400.9,116.1z"/>
	<path d="M498.6,68c-21.8,0.1-30.2,7.3-30.2,22.3c0,17.4,9.7,22.8,28.1,22.8c23.9,0,33.9-5.6,33.9-22.1S520.4,68,498.6,68z"/>
	<path d="M159.5,6.3c-13.7-1.4-23.2-1.8-60.1-1.8c-23.7,0-43.7,0.2-59.9,2.3C18.2,9.5,0,25.8,0,56.1c0,30.7,1.6,53.7,13.9,74.4
		C27.8,154.2,51,167.2,81,167.2h7.3c36.9,0,56.9-19.6,66.9-35.1c4.3-6.8,7.5-13.7,9.6-20.5c26.2-2.3,45.5-23.9,45.5-50.3v-3.6
		C210.3,29.2,191.6,9.4,159.5,6.3z M193.2,61.6c0,18.9-15.7,33.7-33.9,33.7h-8.2l-1.4,5.7c-1.8,8.9-5.2,15.9-9.1,22.3
		c-8,12.5-22.3,26.9-51.9,26.9h-7.1c-22.5,0-42.3-7.7-53.3-28c-9.6-17.5-11.4-36.4-11.4-65.8c0-19.1,7.5-29.8,26.4-32.5
		c13.4-2,31.2-2.3,56-2.3c36.9,0,44.6,0.5,57.6,1.6c23.1,2.6,36.3,13.8,36.3,35V61.6z"/>
	<path d="M156.8,41.5c-3.6,0-5.7,2-5.7,4.8V72c0,2.8,2.1,4.8,5.7,4.8c11.6,0,18-6.6,18-17.5C174.8,48.4,168.4,41.5,156.8,41.5z"/>
	<path d="M106.5,43.1c-9.3,0-15.7,4.8-20.5,11.4c-4.3-6.6-10.9-11.4-20.3-11.4c-15.9,0-26.4,13-26.4,27.5c0,13.4,7.5,25,17.1,34.1
		c6.4,6.1,16.4,12.5,23.2,16.6c2,1.1,4.1,1.8,6.4,1.8c2.7,0,5-0.7,6.8-1.8c6.8-4.1,16.8-10.5,23-16.6c9.8-9.1,17.3-20.7,17.3-34.1
		C133.1,56,122.2,43.1,106.5,43.1z"/>
</g>
</svg>
