<?xml version="1.0" encoding="UTF-8"?><svg id="uuid-43153059-9a84-4629-81ae-ee9ac2cc8fdd" xmlns="http://www.w3.org/2000/svg" viewBox="0 0 1215.54 400"><defs><style>.uuid-e9a77511-187e-42d8-a0c4-d5d37093ab82{fill:#929497;}.uuid-e9a77511-187e-42d8-a0c4-d5d37093ab82,.uuid-76c90581-2818-430d-8560-5808933bf7a8{stroke-width:0px;}.uuid-76c90581-2818-430d-8560-5808933bf7a8{fill:#221e1f;}</style></defs><path id="uuid-6f451a29-7597-44ed-8098-c843d27fb1a5" class="uuid-e9a77511-187e-42d8-a0c4-d5d37093ab82" d="m197.62,359.66c0,4.25-3.48,8.07-7.77,8.07H41.15c-4.33,0-7.81-3.82-7.81-8.07v-107.43c0-4.25,3.48-7.64,7.81-7.64h148.71c4.29,0,7.77,3.4,7.77,7.64v107.43Zm-6.45-147.35H39.79c-21.91,0-39.79,17.83-39.79,39.91v107.86c0,21.66,17.88,39.92,39.79,39.92h151.38c21.95,0,39.79-18.26,39.79-39.92v-107.86c0-22.08-17.83-39.91-39.79-39.91"/><path id="uuid-cdfd6305-9f1f-477e-97c1-1e2b57d565de" class="uuid-76c90581-2818-430d-8560-5808933bf7a8" d="m197.62,149.89c0,3.82-3.48,7.64-7.77,7.64H41.15c-4.33,0-7.81-3.82-7.81-7.64V42.04c0-4.25,3.48-7.64,7.81-7.64h148.71c4.29,0,7.77,3.4,7.77,7.64v107.86ZM191.17,2.12H39.79C17.88,2.12,0,19.96,0,42.04v107.86c0,22.08,17.88,39.91,39.79,39.91h151.38c21.95,0,39.79-17.83,39.79-39.91V42.04c0-22.08-17.83-39.91-39.79-39.91"/><path id="uuid-b6fb055f-d7e7-40a1-8113-6dc6f584901a" class="uuid-76c90581-2818-430d-8560-5808933bf7a8" d="m821.74,320.59c36.01,14.44,112.06,25.9,171.42,25.9,64.97,0,91.85-22.08,91.85-50.11,0-25.48-24.97-39.92-96.69-66.24-95.92-35.24-166.28-63.27-166.28-126.54S906.71,0,1035.75,0c69.3,0,93.08,4.25,137.07,12.31l.34,62c-43.23-8.07-81.53-22.08-141.02-22.08-63.78,0-90.96,20.38-90.96,41.19,0,30.15,41.87,44.59,115.29,70.91,102.21,36.52,159.07,64.54,159.07,126.11s-71.21,109.55-231.8,109.55c-65.94,0-111.42-4.25-162-12.74v-66.67"/><path id="uuid-c658566e-7d87-4f17-80b2-442238094302" class="uuid-76c90581-2818-430d-8560-5808933bf7a8" d="m479.92,54.78h-76.43v289.6h76.43c117.32,0,191.34-50.53,191.34-144.37s-74.01-145.22-191.34-145.22Zm205.14,316.35c-37.79,16.99-109.3,28.03-171.8,28.03h-238.9V.85h238.9c62.51,0,134.01,11.04,171.89,28.03,92.02,41.61,122,108.28,122,171.13s-29.72,129.51-122.08,171.13"/></svg>