<?xml version="1.0" encoding="UTF-8"?><svg id="uuid-a5a9d7ac-853c-46b5-85c6-6932858a5fa3" xmlns="http://www.w3.org/2000/svg" viewBox="0 0 512 512"><defs><style>.uuid-02793817-78a1-48bd-b35f-0352f36d6c1b,.uuid-3938d2ba-abdb-41b9-9540-a9efead3975a{stroke-width:0px;}.uuid-3938d2ba-abdb-41b9-9540-a9efead3975a{fill:none;}</style></defs><polygon class="uuid-3938d2ba-abdb-41b9-9540-a9efead3975a" points="275.96 402.16 348.74 425.28 275.96 402.06 275.96 402.16"/><polygon class="uuid-3938d2ba-abdb-41b9-9540-a9efead3975a" points="193.36 375.89 155.44 363.83 193.36 375.99 193.36 375.89"/><path class="uuid-3938d2ba-abdb-41b9-9540-a9efead3975a" d="m392.4,331.45l-42.98,14.39-.15-.05-73.28,25.11-.03,27.14,114.69-39.27.35.11,21.24-7.3c43.27-13.71,25.09-28.49-19.84-20.13Z"/><path class="uuid-02793817-78a1-48bd-b35f-0352f36d6c1b" d="m511.51,341.76c-5.35-24.11-43.95-37.24-103.36-41.62-42.59-3.01-84.59,6.42-125.53,20.52l-6.56,2.28h-.03s.17-180.61.17-180.61c0-15.75,31.89-14.68,31.99,2.43v141.57c64.66,18.77,97.91-10.02,98.59-81.87.68-61.74-40.55-97.04-108.03-115.12l-105.4-27.81v214.79l-32.38,11.02-.1-.03-118.14,39.96c-.29,0-.97.29-1.65.29l70.79,22.56,81.48-29.14v30.11l-37.92,12.74,37.92,12.06v.1l-37.92-12.15-38.89,13.13c-25.18,8.75-46.67-11.77-23.53-20.13l18.77-6.71-70.79-22.46C19.22,335.05-1.3,350.8.06,372.97c1.36,22.46,52.7,27.81,92.27,34.23,36.95,6.03,70.49,2.72,101.03-8.07v24.41l82.55,26.84v-1.55s.68,1.65.68,1.65l72.15-25.18-72.78-23.13v-.1s72.78,23.22,72.78,23.22l119.79-42.3,1.36-.29c31.5-11.08,44.92-26.54,41.62-40.94Zm-99.28,9.82l-21.24,7.3-.35-.11-114.69,39.27.03-27.14,73.28-25.11.15.05,42.98-14.39c44.92-8.36,63.1,6.42,19.84,20.13Z"/></svg>