<?xml version="1.0" encoding="UTF-8"?><svg id="uuid-36548765-e9e4-49e9-8988-868d5c0736a0" xmlns="http://www.w3.org/2000/svg" viewBox="0 0 512 512"><defs><style>.uuid-6a4fdc2d-8044-4b97-9193-ccfb32a75c5b{stroke-width:0px;}</style></defs><path id="uuid-e67d74f8-6466-4281-b74d-1cba3be43396" class="uuid-6a4fdc2d-8044-4b97-9193-ccfb32a75c5b" d="m311.86,35.12c19.06,2.84,38.46,9.53,48.55,12.59,20.42,6.24,53.55,25.64,65.23,34.94,5.56,4.42,17.13,15.88,21.67,21.67,4.42,5.67,12.82,17.92,18.15,25.41,8.51,12.48,18.49,30.97,27,47.99,9.53,19.06,10.1,24.5,13.05,40.5l6.24,28.02c.57,4.88,1.13,22.69-9.42,25.18-10.44,2.5-20.08-2.27-24.62-9.42-6.35-9.76-5.45-23.6-12.59-39.48-5.56-12.82-7.94-31.42-16.9-44.81l-6.92-11.8c-12.37-18.95-25.18-34.03-32.78-43.79-6.69-8.28-19.29-19.4-31.31-27.45-11-6.69-28.93-14.29-41.75-18.26-4.08-1.36-21.67-6.47-32.56-7.94-14.75-1.7-24.5-3.97-38.57-4.99-17.36-1.25-25.64-2.72-48.21-.11-8.51,2.27-22.01,3.18-34.26,7.94-9.87,3.97-23.48,10.44-36.87,18.38-14.41,7.94-36.3,24.05-50.82,37.89-14.63,15.66-21.89,24.05-31.99,43.79-4.42,9.76-13.05,24.96-16.56,35.62-2.38,10.89-6.92,31.08-6.13,40.95.34,17.58-1.25,21.21.11,35.62,0,12.93,4.31,22.01,6.13,32.56,1.47,7.37,8.51,32.67,12.93,38.57,19.74,42.65,46.28,61.03,75.89,74.42,8.39,4.2,34.49,11.23,41.97,13.27,12.82,2.27,29.84,3.86,46.06,4.2,17.13.34,40.84-2.04,55.13-7.26,15.54-5.67,33.47-13.84,33.24-13.61,7.26-3.97,18.15-10.44,21.67-13.27,6.58-4.2,10.55-5.9,14.52-9.98,5.67-4.99,9.08-7.83,13.39-13.95,2.38-3.4,6.13-8.74,9.87-13.39,3.97-6.47,6.24-13.39,10.1-21.89,4.65-12.59,3.97-11.91,4.76-25.3.79-3.86-.11-16.79-.79-19.06-2.04-12.02-1.36-22.58-4.08-34.15-3.74-15.77-6.81-27.45-11.46-42.65-4.42-17.02-17.47-32.79-27.34-44.02-6.13-6.92-24.96-23.48-51.05-33.69-7.37-2.5-19.4-5.33-27-6.69-16.34-1.7-18.94-.57-34.6.57-5.33.91-17.81,3.52-22.46,5.1-13.39,4.76-18.38,7.71-32.1,16.11-6.35,3.74-11.23,6.58-17.7,12.71-5.22,4.88-8.96,13.05-13.16,17.81-5.79,7.83-12.25,18.38-16.56,29.72-4.65,11.23-6.24,27.11-5.45,37.32,0,7.83,2.16,22.01,2.95,25.07.79,3.06,2.95,12.82,3.4,14.75s5.45,12.14,6.13,13.61c2.84,6.01,8.28,14.75,17.36,23.6,6.69,7.37,19.74,14.63,29.5,17.36,8.74,4.76,23.48,5.67,31.65,5.67,3.97-.23,14.29-.91,19.63-2.16,10.89-2.61,12.82-2.72,24.05-7.49,10.1-4.65,16.9-6.35,23.82-11.46,0,0,9.64-7.49,13.95-13.05,2.27-2.95,6.24-16.79,5.56-25.3-.34-11.8,1.36-18.38-1.02-28.02-2.38-9.64-6.47-20.87-10.89-27.79-4.54-7.03-14.18-13.84-25.18-19.17-6.13-3.06-20.76-5.9-26.89-6.58-11.8-1.36-21.55,3.97-27.57,10.1-5.22,5.9-15.43,18.15-11.34,30.86,3.74,11.46,8.17,23.71,25.41,22.8,11.8,2.5,25.52-1.13,30.06,1.02,6.81,3.86,9.42,12.37,6.92,18.26-1.7,11.46-12.59,12.82-24.28,13.61-10.44,1.7-36.98-3.4-42.77-7.71-3.86-2.27-9.87-7.94-14.07-11.68-3.06-2.72-6.47-8.74-8.85-13.05-2.84-5.33-4.31-9.3-5.1-12.71-.91-4.08-2.72-12.02-2.04-19.85.45-5.33,1.93-7.6,3.29-15.31,2.84-8.85,6.35-15.54,11.91-23.14,7.37-7.49,16.68-16.34,25.75-20.42,8.05-4.2,22.12-5.79,34.83-5.1,10.32,1.02,22.58,2.27,30.63,4.99,13.84,4.88,17.81,5.9,29.04,13.05,9.53,5.9,19.17,16.79,24.62,25.87,11.46,23.37,18.04,49.46,13.27,84.52-.34,5.9-2.27,11.68-5.9,19.51-3.4,7.26-9.42,16-18.38,22.69-3.63,3.29-9.3,7.49-13.95,9.87-6.58,3.97-11,6.13-17.92,9.53-6.01,2.84-13.05,6.13-22.23,8.62-9.98,3.97-17.58,4.08-30.06,6.01-12.25,3.06-45.94.91-66.02-7.94-13.73-5.79-29.04-15.88-40.73-28.25-6.47-6.81-12.82-19.17-14.75-21.67-9.3-17.81-11.12-34.6-12.59-38.12-2.04-4.76-3.06-15.54-4.42-22.92-1.47-8.28-.57-42.77,7.71-65,4.65-8.85,7.49-16.68,10.66-20.87,5.67-8.17,8.51-13.16,13.27-18.95,7.26-8.85,12.59-16.11,19.74-21.21,18.15-14.75,33.35-22.58,53.89-32.33,25.52-10.44,33.13-8.28,57.29-7.83,10.89.11,26.66,3.52,34.37,4.88,14.41,1.93,22.69,5.45,32.44,8.17,10.44,2.95,16.45,7.6,24.96,12.71,7.03,4.54,15.31,10.78,20.76,15.88,13.95,10.32,20.76,21.1,29.38,34.37,1.59,2.27,11.8,23.94,13.39,29.95.79,3.06,3.06,11.68,4.54,16.79,1.93,8.05,2.84,15.2,4.99,24.28,1.93,9.42,5.1,27.11,6.58,43.56,2.38,14.18-1.47,43.11-3.63,52.07-4.99,16.56-13.61,36.87-30.74,56.27-7.26,8.62-14.97,15.31-23.94,22.58-6.81,5.67-12.71,9.08-23.26,15.31-14.29,8.51-25.3,14.07-45.38,21.89-8.17,2.61-18.49,6.13-29.61,8.39-21.55,2.04-43.68,3.86-67.84,1.02-24.16-2.84-48.33-9.64-62.62-14.07-7.94-2.95-23.14-9.42-29.61-12.82-4.2-2.16-18.15-11.68-20.53-13.95-9.53-5.9-30.97-26.09-44.81-44.92-3.06-5.79-13.95-23.26-16.34-30.86-6.24-12.93-10.66-28.47-13.27-35.17-2.72-15.54-7.26-25.64-9.08-41.18C1.81,284.81.79,276.07,0,271.31c1.25-10.66-.45-20.76,1.7-32.44,1.82-9.87,4.31-13.95,4.88-22.8.57-3.86,5.45-15.2,6.81-20.31,3.97-8.39,4.88-15.31,10.1-24.62,7.37-14.63,15.2-31.42,27.11-46.06,3.4-4.54,13.05-15.43,16.34-19.29,7.83-7.83,12.37-8.96,21.21-16.79.91-.57,6.69-7.26,12.82-9.53,10.1-7.83,18.83-10.66,28.47-17.81,19.29-9.64,26.32-12.82,45.49-20.76,11.12-3.97,26.55-6.13,32.1-8.28,10.55-.68,21.33-4.08,32.44-3.4,12.48-.11,25.07.79,37.55,1.93,8.85.34,19.85.79,34.83,3.97h0Z"/></svg>