<?xml version="1.0" encoding="UTF-8"?><svg id="uuid-7b48dfae-5792-45a3-8de1-0482d7d05ff0" xmlns="http://www.w3.org/2000/svg" viewBox="0 0 1215.54 400"><defs><style>.uuid-b73aa1ea-0d05-45b9-9aeb-0648801b1189{stroke-width:0px;}</style></defs><path id="uuid-c24db95e-3c91-4c3c-8839-464fc48f8096" class="uuid-b73aa1ea-0d05-45b9-9aeb-0648801b1189" d="m197.62,359.66c0,4.25-3.48,8.07-7.77,8.07H41.15c-4.33,0-7.81-3.82-7.81-8.07v-107.43c0-4.25,3.48-7.64,7.81-7.64h148.71c4.29,0,7.77,3.4,7.77,7.64v107.43Zm-6.45-147.35H39.79c-21.91,0-39.79,17.83-39.79,39.91v107.86c0,21.66,17.88,39.92,39.79,39.92h151.38c21.95,0,39.79-18.26,39.79-39.92v-107.86c0-22.08-17.83-39.91-39.79-39.91"/><path id="uuid-25c8cee9-e5d3-4a07-8483-b25456787337" class="uuid-b73aa1ea-0d05-45b9-9aeb-0648801b1189" d="m197.62,149.89c0,3.82-3.48,7.64-7.77,7.64H41.15c-4.33,0-7.81-3.82-7.81-7.64V42.04c0-4.25,3.48-7.64,7.81-7.64h148.71c4.29,0,7.77,3.4,7.77,7.64v107.86ZM191.17,2.12H39.79C17.88,2.12,0,19.96,0,42.04v107.86c0,22.08,17.88,39.91,39.79,39.91h151.38c21.95,0,39.79-17.83,39.79-39.91V42.04c0-22.08-17.83-39.91-39.79-39.91"/><path id="uuid-43ed8dac-e8e8-4b0f-a884-096f8f02a1d5" class="uuid-b73aa1ea-0d05-45b9-9aeb-0648801b1189" d="m821.74,320.59c36.01,14.44,112.06,25.9,171.42,25.9,64.97,0,91.85-22.08,91.85-50.11,0-25.48-24.97-39.92-96.69-66.24-95.92-35.24-166.28-63.27-166.28-126.54S906.71,0,1035.75,0C1105.05,0,1128.83,4.25,1172.82,12.31l.34,62c-43.23-8.07-81.53-22.08-141.02-22.08-63.78,0-90.96,20.38-90.96,41.19,0,30.15,41.87,44.59,115.29,70.91,102.21,36.52,159.07,64.54,159.07,126.11s-71.21,109.55-231.8,109.55c-65.94,0-111.42-4.25-162-12.74v-66.67"/><path id="uuid-abe65cda-073f-40a7-8b2b-019d28f926b7" class="uuid-b73aa1ea-0d05-45b9-9aeb-0648801b1189" d="m479.92,54.78h-76.43v289.6h76.43c117.32,0,191.34-50.53,191.34-144.37s-74.01-145.22-191.34-145.22Zm205.14,316.35c-37.79,16.99-109.3,28.03-171.8,28.03h-238.9V.85h238.9c62.51,0,134.01,11.04,171.89,28.03,92.02,41.61,122,108.28,122,171.13s-29.72,129.51-122.08,171.13"/></svg>