<?xml version="1.0" encoding="UTF-8"?><svg id="uuid-4a6319dc-9535-4c39-a1f3-45c3266ac34c" xmlns="http://www.w3.org/2000/svg" viewBox="0 0 526.47 400"><defs><style>.uuid-35b01294-4de6-458c-a666-238580a5e26e{fill:#f3c202;}.uuid-35b01294-4de6-458c-a666-238580a5e26e,.uuid-21956fa4-f899-42f3-8416-ac072d5df9e2,.uuid-251a293b-19ac-4bd8-9a6f-6b194ced1b7e,.uuid-4a6f20b7-dbd3-4ce9-bdee-a8b578a47fa7{fill-rule:evenodd;stroke-width:0px;}.uuid-21956fa4-f899-42f3-8416-ac072d5df9e2{fill:#00aa9e;}.uuid-251a293b-19ac-4bd8-9a6f-6b194ced1b7e{fill:#de0029;}.uuid-4a6f20b7-dbd3-4ce9-bdee-a8b578a47fa7{fill:#326db3;}</style></defs><g id="uuid-2382bf3d-908c-4c2c-89a7-7cc3f4c2ae43"><path id="uuid-c515ac06-3dd6-437f-963a-4416ac2f9a21" class="uuid-251a293b-19ac-4bd8-9a6f-6b194ced1b7e" d="m284.06,83.18l-.35,316.82-84.89-27.61V0l108.35,28.65c69.36,18.64,111.8,54.87,111.11,118.38-.69,73.86-34.85,103.54-101.45,84.21V85.59c0-17.6-32.78-18.63-32.78-2.41h0Z"/><path id="uuid-a4c4f047-0671-45ea-abb2-ecf63de2c407" class="uuid-35b01294-4de6-458c-a666-238580a5e26e" d="m159.83,310.95l-40.03,13.46c-25.88,8.98-47.96-12.08-24.16-20.71l19.32-6.9-72.81-23.13C19.73,281.28-1.32,297.5.06,320.28c1.38,23.12,54.17,28.65,94.9,35.2,37.96,6.21,72.46,2.76,103.87-8.29v-23.82l-38.99-12.43h0Zm124.57,89.05l74.19-25.89-74.88-23.81v47.97l.69,1.73h0Z"/><path id="uuid-a7842a8e-d9a3-430c-88c4-c92d119c6db3" class="uuid-4a6f20b7-dbd3-4ce9-bdee-a8b578a47fa7" d="m481.79,330.63l1.38-.35c32.44-11.39,46.24-27.27,42.79-42.1-5.52-24.85-45.21-38.31-106.28-42.8-43.82-3.1-86.96,6.56-129.05,21.05l-6.9,2.42,75.57,23.47,44.17-14.84c46.24-8.63,64.88,6.56,20.36,20.71l-22.09,7.59,80.06,24.85h0Zm-282.96-109.75l-33.48,11.39,33.48,10.35v-21.74h0Z"/><path id="uuid-5dbfbd85-c00b-4d36-a386-ad82ad271ad8" class="uuid-21956fa4-f899-42f3-8416-ac072d5df9e2" d="m358.6,374.11l123.19-43.48-80.06-24.85-118.01,40.38v4.15l74.88,23.81h0Zm-159.77-76.27l-38.99,13.11,38.99,12.42v-25.54h0Zm84.89,20.37v-49.35l75.57,23.47-75.57,25.89h0Zm-168.74-21.4l83.85-30.03v-24.16l-33.47-10.35-121.47,41.07c-.35,0-1.04.34-1.72.34l72.81,23.13h0Z"/></g></svg>