<?xml version="1.0" encoding="UTF-8"?><svg id="uuid-3929d5f9-78ec-4bee-af8d-f3fab80db879" xmlns="http://www.w3.org/2000/svg" viewBox="0 0 451 400"><defs><style>.uuid-8cf4f684-e608-4b65-ab4c-1cef80e96ac9{stroke-width:0px;}</style></defs><path id="uuid-310d6905-9e0e-4a13-9507-0b1a93a181e1" class="uuid-8cf4f684-e608-4b65-ab4c-1cef80e96ac9" d="m274.56,6.79c16.76,2.52,33.88,8.37,42.8,11.1,17.98,5.5,47.18,22.58,57.48,30.78,4.88,3.87,15.13,14.02,19.1,19.13,3.87,4.98,11.26,15.76,15.97,22.4,7.5,10.96,16.34,27.29,23.84,42.31,8.37,16.79,8.95,21.65,11.48,35.68l5.54,24.74c.52,4.28.95,19.97-8.26,22.17-9.21,2.2-17.72-2.05-21.73-8.26-5.55-8.59-4.79-20.79-11.07-34.75-4.9-11.29-7.04-27.69-14.86-39.48l-6.13-10.37c-10.85-16.71-22.17-29.97-28.92-38.62-5.94-7.27-17.04-17.15-27.56-24.18-9.73-5.9-25.45-12.63-36.8-16.09-3.61-1.18-19.08-5.72-28.7-7-13.05-1.47-21.63-3.53-34.03-4.4-15.31-1.08-22.65-2.44-42.5-.12-7.52,2.04-19.44,2.85-30.16,6.95-8.66,3.53-20.71,9.24-32.51,16.17-12.7,6.96-31.98,21.21-44.77,33.37-12.89,13.77-19.33,21.16-28.22,38.61-3.94,8.64-11.55,22-14.61,31.43-2.1,9.57-6.1,27.43-5.42,36.1.3,15.54-1.06,18.74.11,31.44.04,11.43,3.8,19.36,5.36,28.72,1.34,6.46,7.54,28.82,11.37,34.01,17.43,37.56,40.83,53.83,66.91,65.57,7.35,3.74,30.35,9.9,37.01,11.66,11.35,2.05,26.28,3.41,40.65,3.69,15.12.3,35.96-1.75,48.61-6.41,13.69-5.03,29.51-12.19,29.33-11.99,6.35-3.5,16.04-9.21,19.06-11.73,5.84-3.74,9.35-5.19,12.81-8.79,4.99-4.36,8.01-6.88,11.78-12.28,2.1-3.05,5.44-7.71,8.7-11.84,3.5-5.74,5.51-11.78,8.93-19.26,4.09-11.06,3.45-10.53,4.23-22.28.73-3.4-.08-14.85-.7-16.79-1.84-10.56-1.19-19.87-3.61-30.12-3.27-13.87-5.98-24.25-10.14-37.56-3.92-14.98-15.42-28.86-24.06-38.77-5.35-6.15-21.95-20.66-44.98-29.72-6.48-2.18-17.1-4.66-23.84-5.88-14.39-1.5-16.73-.54-30.51.47-4.74.83-15.75,3.08-19.79,4.5-11.83,4.16-16.19,6.8-28.28,14.21-5.63,3.27-9.88,5.77-15.63,11.17-4.59,4.25-7.88,11.48-11.6,15.72-5.1,6.94-10.77,16.19-14.58,26.17-4.13,9.93-5.46,23.9-4.83,32.9,0,6.85,1.86,19.4,2.61,22.15.74,2.75,2.59,11.27,2.99,12.98.4,1.71,4.83,10.72,5.44,12.03,2.5,5.32,7.28,12.96,15.34,20.76,5.95,6.49,17.44,12.87,26.05,15.34,7.72,4.23,20.73,4.95,27.93,4.97,3.54-.21,12.59-.77,17.32-1.9,9.58-2.3,11.35-2.36,21.22-6.65,8.86-4.11,14.87-5.59,21.04-10.14,0,0,8.47-6.64,12.32-11.49,2.03-2.56,5.51-14.77,4.89-22.34-.29-10.35,1.22-16.23-.89-24.75-2.11-8.52-5.72-18.39-9.63-24.48-3.96-6.16-12.48-12.17-22.17-16.95-5.43-2.68-18.28-5.16-23.74-5.81-10.36-1.23-19.03,3.47-24.29,8.85-4.56,5.21-13.58,16.05-9.99,27.25,3.25,10.13,7.18,20.93,22.37,20.13,10.43,2.17,22.5-.98,26.51.87,5.96,3.39,8.26,10.86,6.09,16.08-1.51,10.06-11.14,11.26-21.42,12.03-9.2,1.54-32.55-2.96-37.69-6.81-3.44-2.05-8.72-6.96-12.43-10.28-2.67-2.39-5.69-7.71-7.76-11.54-2.53-4.7-3.81-8.16-4.47-11.22-.77-3.64-2.37-10.58-1.76-17.52.41-4.68,1.66-6.67,2.91-13.52,2.48-7.76,5.57-13.67,10.54-20.4,6.47-6.57,14.69-14.38,22.71-18.01,7.07-3.74,19.46-5.11,30.67-4.46,9.09.87,19.85,1.98,26.96,4.36,12.17,4.35,15.65,5.21,25.64,11.52,8.44,5.23,16.94,14.84,21.68,22.8,10.08,20.63,15.87,43.59,11.66,74.49-.35,5.22-1.97,10.32-5.23,17.23-3,6.38-8.28,14.14-16.19,19.98-3.19,2.95-8.21,6.58-12.3,8.7-5.8,3.52-9.71,5.35-15.77,8.4-5.32,2.5-11.52,5.36-19.6,7.6-8.76,3.46-15.48,3.61-26.5,5.25-10.85,2.72-40.52.78-58.2-7.02-12.07-5.07-25.6-14.02-35.89-24.92-5.72-5.99-11.31-16.86-12.95-19.09-8.18-15.73-9.79-30.53-11.1-33.64-1.78-4.22-2.67-13.69-3.86-20.17-1.35-7.26-.51-37.73,6.82-57.28,4.13-7.78,6.56-14.72,9.35-18.37,5.03-7.15,7.46-11.62,11.74-16.7,6.45-7.82,11.14-14.2,17.42-18.7,16-13.01,29.37-19.88,47.46-28.47,22.47-9.15,29.22-7.26,50.48-6.92,9.57.08,23.49,3.09,30.33,4.34,12.71,1.69,19.99,4.76,28.59,7.15,9.19,2.57,14.51,6.66,22.05,11.22,6.21,4.01,13.52,9.5,18.34,13.96,12.35,9.05,18.3,18.57,25.87,30.26,1.37,1.96,10.36,21.11,11.79,26.44.66,2.67,2.7,10.34,4,14.82,1.68,7.11,2.49,13.4,4.36,21.42,1.68,8.26,4.53,23.86,5.76,38.45,2.08,12.51-1.25,38.04-3.22,45.88-4.37,14.61-12.02,32.45-27.13,49.63-6.42,7.61-13.24,13.5-21.12,19.9-6.03,5.03-11.2,7.96-20.51,13.52-12.65,7.55-22.27,12.37-40,19.29-7.22,2.32-16.31,5.36-26.11,7.39-18.99,1.75-38.5,3.44-59.8.91-21.3-2.53-42.64-8.54-55.24-12.41-6.95-2.61-20.43-8.26-26.08-11.3-3.67-1.87-16-10.29-18.09-12.32-8.44-5.23-27.34-23-39.54-39.57-2.67-5.12-12.29-20.48-14.37-27.21-5.54-11.38-9.41-25.15-11.68-31.03-2.4-13.73-6.44-22.57-8.02-36.35.18-3.24-.65-10.88-1.39-15.1,1.07-9.43-.36-18.32,1.51-28.59,1.64-8.67,3.82-12.28,4.34-20.11.51-3.35,4.82-13.43,5.97-17.91,3.48-7.39,4.35-13.47,8.89-21.72,6.54-12.86,13.38-27.66,23.9-40.58,3-4.01,11.51-13.62,14.41-16.95,6.86-6.85,10.88-7.94,18.66-14.82.81-.51,5.95-6.37,11.32-8.38,8.91-6.89,16.62-9.41,25.1-15.68,17-8.47,23.2-11.33,40.08-18.35,9.75-3.48,23.35-5.4,28.25-7.3,9.32-.58,18.77-3.55,28.58-2.96,11-.1,22.09.68,33.15,1.69,7.48.46,17.21.82,30.41,3.69h0Z"/></svg>