<?xml version="1.0" encoding="UTF-8"?><svg id="uuid-6be71f27-9eda-4c7e-8b75-1f0179244a9e" xmlns="http://www.w3.org/2000/svg" xmlns:xlink="http://www.w3.org/1999/xlink" viewBox="0 0 2318.1 400"><defs><style>.uuid-76e1d0e8-7117-4c2f-8883-81e2b657bf1c{fill:url(#uuid-26c67e4f-fa38-413c-ac4c-447356e1cf2c);}.uuid-76e1d0e8-7117-4c2f-8883-81e2b657bf1c,.uuid-470eedcd-7a1c-4086-b109-940efdc201d8,.uuid-4ab9e72b-8ce1-4f19-a6d7-f3adb8633a29{fill-rule:evenodd;stroke-width:0px;}.uuid-470eedcd-7a1c-4086-b109-940efdc201d8{fill:url(#uuid-5c5a1bcd-c946-4683-a365-a32e0acf6c5e);}.uuid-4ab9e72b-8ce1-4f19-a6d7-f3adb8633a29{fill:url(#uuid-0c3909c2-c8a8-424b-9a04-cf587cad241f);}</style><linearGradient id="uuid-26c67e4f-fa38-413c-ac4c-447356e1cf2c" x1="360.28" y1="211.07" x2="360.28" y2="611.07" gradientTransform="translate(0 611.07) scale(1 -1)" gradientUnits="userSpaceOnUse"><stop offset="0" stop-color="#23bcee"/><stop offset=".07" stop-color="#24b0e5"/><stop offset=".36" stop-color="#2785c3"/><stop offset=".63" stop-color="#2965aa"/><stop offset=".85" stop-color="#2b529b"/><stop offset="1" stop-color="#2b4b96"/></linearGradient><linearGradient id="uuid-5c5a1bcd-c946-4683-a365-a32e0acf6c5e" x1="1956.54" y1="224.6" x2="1956.54" y2="600.4" gradientTransform="translate(0 611.07) scale(1 -1)" gradientUnits="userSpaceOnUse"><stop offset="0" stop-color="#09b2cf"/><stop offset="1" stop-color="#304e97"/></linearGradient><linearGradient id="uuid-0c3909c2-c8a8-424b-9a04-cf587cad241f" x1="1103.92" y1="211.07" x2="1103.92" y2="611.07" gradientTransform="translate(0 611.07) scale(1 -1)" gradientUnits="userSpaceOnUse"><stop offset="0" stop-color="#09b2cf"/><stop offset=".2" stop-color="#178fbb"/><stop offset=".4" stop-color="#2273ab"/><stop offset=".6" stop-color="#2a5ea0"/><stop offset=".8" stop-color="#2e5299"/><stop offset="1" stop-color="#304e97"/></linearGradient></defs><polygon id="uuid-99c8aa47-0fe4-4f9a-a95f-e75ca1a1cecf" class="uuid-76e1d0e8-7117-4c2f-8883-81e2b657bf1c" points="0 0 0 28.21 694.91 28.21 694.91 184.61 0 184.61 0 400 28.18 400 28.18 212.83 720.57 212.83 720.57 0 0 0"/><polygon id="uuid-6051ae57-f338-4916-b46a-469177a307ee" class="uuid-470eedcd-7a1c-4086-b109-940efdc201d8" points="1594.97 0 1594.97 28.21 2289.92 28.21 2289.92 184.61 1594.97 184.61 1594.97 400 2318.1 400 2318.1 371.82 1625.78 371.82 1625.78 212.83 2318.1 212.83 2318.1 0 1594.97 0"/><polygon id="uuid-2df84870-c225-406f-ae16-31807a1a143a" class="uuid-4ab9e72b-8ce1-4f19-a6d7-f3adb8633a29" points="1089.82 0 1089.82 371.82 720.57 371.82 720.57 400 1120.6 400 1120.6 28.21 1487.26 28.21 1487.26 0 1089.82 0"/></svg>