<?xml version="1.0" encoding="UTF-8"?><svg id="uuid-2f353326-ca9a-4def-8979-cc4e0204c282" xmlns="http://www.w3.org/2000/svg" viewBox="0 0 512 512"><defs><style>.uuid-57288000-e776-44a4-8d59-bd342b47de04{stroke-width:0px;}</style></defs><g id="uuid-c79f4681-2ff1-4968-83be-2dcbc5139f80"><g id="uuid-e4f5ebde-f370-4f23-ad43-2a8a8cc3bbd4"><path id="uuid-7a74710e-9a27-4617-a53c-7d2b266f76c2" class="uuid-57288000-e776-44a4-8d59-bd342b47de04" d="m502.58,227.64c0,1.2-.98,2.28-2.2,2.28h-42.04c-1.22,0-2.21-1.08-2.21-2.28v-30.37c0-1.2.98-2.16,2.21-2.16h42.04c1.21,0,2.2.96,2.2,2.16v30.37Zm-1.82-41.66h-42.8c-6.19,0-11.25,5.04-11.25,11.28v30.49c0,6.12,5.05,11.28,11.25,11.28h42.8c6.21,0,11.25-5.16,11.25-11.28v-30.49c0-6.24-5.04-11.28-11.25-11.28"/><path id="uuid-f97fd7d8-d98c-44cc-a0e6-0916573840c2" class="uuid-57288000-e776-44a4-8d59-bd342b47de04" d="m9.82,140.37v39.25H0v-53.06h8.39l39.77,38.65v-38.65h9.69v53.06h-7.67l-40.36-39.25"/><path id="uuid-b79f76d9-09ea-4f7e-bf4d-80f0421ec1dc" class="uuid-57288000-e776-44a4-8d59-bd342b47de04" d="m108.27,140.37v39.25h-9.82v-53.06h8.38l39.77,38.65v-38.65h9.7v53.06h-7.67l-40.36-39.25"/><path id="uuid-dae0a5cd-1de1-43de-87a1-e18ebf1f090f" class="uuid-57288000-e776-44a4-8d59-bd342b47de04" d="m312.31,140.37v39.25h-9.82v-53.06h8.38l39.77,38.65v-38.65h9.7v53.06h-7.66l-40.37-39.25"/><path id="uuid-83d6df41-2285-4bcd-b4a1-c10c2d66bfa0" class="uuid-57288000-e776-44a4-8d59-bd342b47de04" d="m81.23,126.57h1.81v53.06h-9.82v-53.06h8.01"/><path id="uuid-6bf75fe7-2cce-4d77-bef8-fed99fba6704" class="uuid-57288000-e776-44a4-8d59-bd342b47de04" d="m223.17,126.57h1.8v9.12h-23.67v43.94h-10.2v-43.94h-23.67v-9.12h55.75"/><path id="uuid-2cc5f104-c566-489d-bd7d-ecfebbb090eb" class="uuid-57288000-e776-44a4-8d59-bd342b47de04" d="m286.08,126.57h1.84v9.12h-42.09v11.88h32.56v9.12h-32.56v13.81h42.09v9.12h-51.81v-53.06h49.97"/><path id="uuid-30230180-3441-4b05-bf99-6e80ccbe20ac" class="uuid-57288000-e776-44a4-8d59-bd342b47de04" d="m414.93,170.5h-30.16v-34.81h30.16c9.44,0,12.78,9.36,12.78,17.41s-3.35,17.41-12.78,17.41Zm16.11-36.13c-3.84-5.16-9.52-7.8-16.39-7.8h-39.35v53.06h39.35c6.87,0,12.54-2.76,16.39-7.8,3.6-4.68,5.51-11.16,5.51-18.73s-1.91-14.05-5.51-18.73"/><path id="uuid-9a8cdb4c-64d9-46e2-980f-791b44416da7" class="uuid-57288000-e776-44a4-8d59-bd342b47de04" d="m502.58,168.34c0,1.08-.98,2.16-2.2,2.16h-42.04c-1.22,0-2.21-1.08-2.21-2.16v-30.49c0-1.2.98-2.16,2.21-2.16h42.04c1.21,0,2.2.96,2.2,2.16v30.49Zm-1.82-41.78h-42.8c-6.19,0-11.25,5.04-11.25,11.28v30.49c0,6.24,5.05,11.28,11.25,11.28h42.8c6.21,0,11.25-5.04,11.25-11.28v-30.49c0-6.24-5.04-11.28-11.25-11.28"/><path id="uuid-44e89e8c-753b-4a8b-99b4-7a6ef70472c9" class="uuid-57288000-e776-44a4-8d59-bd342b47de04" d="m260.45,347.65c17.13,6.87,53.32,12.32,81.56,12.32,30.91,0,43.7-10.51,43.7-23.84,0-12.12-11.88-18.99-46-31.52-45.64-16.77-79.12-30.1-79.12-60.21s40.29-49.3,101.69-49.3c32.97,0,44.29,2.02,65.22,5.86l.16,29.5c-20.57-3.84-38.79-10.51-67.1-10.51-30.35,0-43.28,9.7-43.28,19.6,0,14.35,19.92,21.21,54.85,33.74,48.63,17.38,75.68,30.71,75.68,60.01s-33.88,52.13-110.29,52.13c-31.38,0-53.02-2.02-77.08-6.06v-31.72"/><path id="uuid-34d382f2-3927-4ae2-83a6-cb3c425db2c5" class="uuid-57288000-e776-44a4-8d59-bd342b47de04" d="m97.81,221.17h-36.37v137.79h36.37c55.82,0,91.04-24.04,91.04-68.69s-35.22-69.1-91.04-69.1Zm97.61,150.52c-17.98,8.08-52.01,13.33-81.75,13.33H0v-189.52h113.67c29.74,0,63.76,5.25,81.79,13.33,43.78,19.8,58.05,51.52,58.05,81.42s-14.14,61.62-58.09,81.42"/></g></g></svg>