<?xml version="1.0" encoding="UTF-8"?><svg id="uuid-7f3b175d-9a31-4228-8931-82235d1fd958" xmlns="http://www.w3.org/2000/svg" viewBox="0 0 2318.1 400"><defs><style>.uuid-e267302c-6e74-46e6-9810-40b609a2d7b9{fill-rule:evenodd;stroke-width:0px;}</style></defs><polygon id="uuid-de58384d-de7c-491a-92f2-7cb36529dd6a" class="uuid-e267302c-6e74-46e6-9810-40b609a2d7b9" points="0 0 0 28.21 694.91 28.21 694.91 184.61 0 184.61 0 400 28.18 400 28.18 212.83 720.57 212.83 720.57 0 0 0"/><polygon id="uuid-a98cacdc-db2c-4462-aa47-bce11ccaecd9" class="uuid-e267302c-6e74-46e6-9810-40b609a2d7b9" points="1594.97 0 1594.97 28.21 2289.92 28.21 2289.92 184.61 1594.97 184.61 1594.97 400 2318.1 400 2318.1 371.82 1625.78 371.82 1625.78 212.83 2318.1 212.83 2318.1 0 1594.97 0"/><polygon id="uuid-f81a9b9d-d3a3-48d2-a2ad-530c0fd3eb4f" class="uuid-e267302c-6e74-46e6-9810-40b609a2d7b9" points="1089.82 0 1089.82 371.82 720.57 371.82 720.57 400 1120.6 400 1120.6 28.21 1487.26 28.21 1487.26 0 1089.82 0"/></svg>