<?xml version="1.0" encoding="UTF-8"?><svg id="uuid-c3dbf1db-f639-4e9a-8d63-6a9956129b5c" xmlns="http://www.w3.org/2000/svg" viewBox="0 0 512 512"><defs><style>.uuid-a4de3963-b730-4fcb-9997-363bfa9967ac{fill-rule:evenodd;}.uuid-a4de3963-b730-4fcb-9997-363bfa9967ac,.uuid-098e4e64-f3c4-496b-821a-6b19448bbd89{stroke-width:0px;}</style></defs><g id="uuid-6af4796c-854d-450f-8f63-8fdb0d206a35"><polygon class="uuid-a4de3963-b730-4fcb-9997-363bfa9967ac" points="5.38 212.73 5.38 218.9 155.66 218.9 155.66 252.67 5.38 252.67 5.38 299.27 11.45 299.27 11.45 258.74 161.24 258.74 161.24 212.73 5.38 212.73"/><polygon class="uuid-098e4e64-f3c4-496b-821a-6b19448bbd89" points="16.84 304.65 0 304.65 0 247.29 150.27 247.29 150.27 224.28 0 224.28 0 207.35 166.62 207.35 166.62 264.13 16.84 264.13 16.84 304.65"/></g><g id="uuid-0fcb096f-fcc5-4b30-a5f3-10e5c48d3950"><polygon class="uuid-a4de3963-b730-4fcb-9997-363bfa9967ac" points="350.27 212.73 350.27 218.9 500.55 218.9 500.55 252.67 350.27 252.67 350.27 299.27 506.62 299.27 506.62 293.1 356.93 293.1 356.93 258.74 506.62 258.74 506.62 212.73 350.27 212.73"/><polygon class="uuid-098e4e64-f3c4-496b-821a-6b19448bbd89" points="512 304.65 344.89 304.65 344.89 247.29 495.16 247.29 495.16 224.28 344.89 224.28 344.89 207.35 512 207.35 512 264.13 362.32 264.13 362.32 287.72 512 287.72 512 304.65"/></g><g id="uuid-b535c97d-da0e-472f-8a3d-271ae3261346"><polygon class="uuid-a4de3963-b730-4fcb-9997-363bfa9967ac" points="241.02 212.73 241.02 293.1 161.24 293.1 161.24 299.27 247.68 299.27 247.68 218.9 326.98 218.9 326.98 212.73 241.02 212.73"/><polygon class="uuid-098e4e64-f3c4-496b-821a-6b19448bbd89" points="253.06 304.65 155.85 304.65 155.85 287.72 235.64 287.72 235.64 207.35 332.36 207.35 332.36 224.28 253.06 224.28 253.06 304.65"/></g></svg>