<?xml version="1.0" encoding="utf-8"?>
<!-- Generator: Adobe Illustrator 27.9.0, SVG Export Plug-In . SVG Version: 6.00 Build 0)  -->
<svg version="1.1" id="Layer_1" xmlns="http://www.w3.org/2000/svg" xmlns:xlink="http://www.w3.org/1999/xlink" x="0px" y="0px"
	 viewBox="0 0 27 27" style="enable-background:new 0 0 27 27;" xml:space="preserve">
<g>
	<path d="M22.5,27h-18C2,27,0,25,0,22.5v-18C0,2,2,0,4.5,0h18C25,0,27,2,27,4.5v18C27,25,25,27,22.5,27z M15,24h7.5
		c0.8,0,1.5-0.7,1.5-1.5V15h-9V24z M3,15v7.5C3,23.3,3.7,24,4.5,24H12v-9H3z M15,12h9V4.5C24,3.7,23.3,3,22.5,3H15V12z M3,12h9V3
		H4.5C3.7,3,3,3.7,3,4.5V12z"/>
</g>
</svg>
