<?xml version="1.0" encoding="utf-8"?>
<!-- Generator: Adobe Illustrator 27.9.0, SVG Export Plug-In . SVG Version: 6.00 Build 0)  -->
<svg version="1.1" id="Layer_1" xmlns="http://www.w3.org/2000/svg" xmlns:xlink="http://www.w3.org/1999/xlink" x="0px" y="0px"
	 viewBox="0 0 24 24" style="enable-background:new 0 0 24 24;" xml:space="preserve">
<g>
	<path d="M16.4,7.6c-0.5-0.5-1.2-0.5-1.7,0L12,10.3L9.2,7.6C8.8,7.1,8,7.1,7.6,7.6C7.1,8,7.1,8.8,7.6,9.2l2.8,2.8l-2.8,2.8
		c-0.5,0.5-0.5,1.2,0,1.7c0.2,0.2,0.5,0.4,0.8,0.4c0.3,0,0.6-0.1,0.8-0.4l2.8-2.8l2.8,2.8c0.2,0.2,0.5,0.4,0.8,0.4s0.6-0.1,0.8-0.4
		c0.5-0.5,0.5-1.2,0-1.7L13.7,12l2.8-2.8C16.9,8.8,16.9,8,16.4,7.6z"/>
	<path d="M23.1,7.3c-0.6-1.4-1.5-2.7-2.6-3.8c-1.1-1.1-2.4-2-3.8-2.6C15.2,0.3,13.6,0,12,0c-1.6,0-3.2,0.3-4.7,0.9
		C5.9,1.5,4.6,2.4,3.5,3.5c-1.1,1.1-2,2.4-2.6,3.8C0.3,8.8,0,10.4,0,12c0,1.6,0.3,3.2,0.9,4.7c0.6,1.4,1.5,2.7,2.6,3.8
		c1.1,1.1,2.4,2,3.8,2.6C8.8,23.7,10.4,24,12,24c1.6,0,3.2-0.3,4.7-0.9c1.4-0.6,2.7-1.5,3.8-2.6c1.1-1.1,2-2.4,2.6-3.8
		c0.6-1.5,0.9-3.1,0.9-4.7C24,10.4,23.7,8.8,23.1,7.3z M12,21.6c-5.3,0-9.6-4.3-9.6-9.6S6.7,2.4,12,2.4s9.6,4.3,9.6,9.6
		S17.3,21.6,12,21.6z"/>
</g>
</svg>
