<?xml version="1.0" encoding="utf-8"?>
<!-- Generator: Adobe Illustrator 27.9.0, SVG Export Plug-In . SVG Version: 6.00 Build 0)  -->
<svg version="1.1" id="Layer_1" xmlns="http://www.w3.org/2000/svg" xmlns:xlink="http://www.w3.org/1999/xlink" x="0px" y="0px"
	 viewBox="0 0 24 24" style="enable-background:new 0 0 24 24;" xml:space="preserve">
<style type="text/css">
	.st0{fill-rule:evenodd;clip-rule:evenodd;}
</style>
<g id="Page-1">
	<g id="Dribbble-Light-Preview" transform="translate(-419.000000, -640.000000)">
		<g id="icons" transform="translate(56.000000, 160.000000)">
			<path id="save_x5F_item-_x5B__x23_1411_x5D_" class="st0" d="M371.2,485.1c0-0.6,0.5-1.1,1.2-1.1c0.7,0,1.2,0.5,1.2,1.1
				s-0.5,1.1-1.2,1.1C371.8,486.3,371.2,485.8,371.2,485.1L371.2,485.1z M384.6,500c0,0.6-0.5,1.1-1.2,1.1h-1.2v-4.6
				c0-1.3-1.1-2.3-2.4-2.3h-9.6c-1.3,0-2.4,1-2.4,2.3v4.6h-1.2c-0.7,0-1.2-0.5-1.2-1.1v-11.4c0-0.2,0.1-0.3,0.2-0.4l2.2-2.1v1.3
				c0,1.3,1.1,2.3,2.4,2.3h9.6c1.3,0,2.4-1,2.4-2.3v-4.6h1.2c0.7,0,1.2,0.5,1.2,1.1V500z M379.8,501.1h-9.6v-3.4
				c0-0.6,0.5-1.1,1.2-1.1h7.2c0.7,0,1.2,0.5,1.2,1.1V501.1z M370.2,483.8l1-1h8.6v3.4c0,0.6-0.5,1.1-1.2,1.1h-7.2
				c-0.7,0-1.2-0.5-1.2-1.1V483.8z M384.6,480.6h-13.9c-0.3,0-0.6,0.1-0.8,0.3l-6.5,6.2c-0.2,0.2-0.4,0.5-0.4,0.8v13.2
				c0,1.3,1.1,2.3,2.4,2.3h19.2c1.3,0,2.4-1,2.4-2.3v-18.3C387,481.6,385.9,480.6,384.6,480.6L384.6,480.6z"/>
		</g>
	</g>
</g>
</svg>
