<?xml version="1.0" encoding="UTF-8"?>
<svg id="BACKGROUND" xmlns="http://www.w3.org/2000/svg" viewBox="0 0 462.78 258.94">
  <defs>
    <style>
      .cls-1 {
        fill: #ffffff;
      }
    </style>
  </defs>
  <g>
    <path class="cls-1" d="M-20.52-41.25C-6.3-.79,13.93,37.49,37.95,72.96c48.78,73.61,117.66,134.88,199.23,169.62,36.87,15.92,76.93,25.49,116.07,31.59-29.26-3.61-58.28-10.05-86.19-19.61-43.07-14.96-84.03-36.34-120.27-64.07C71.62,132.68,10.09,47.95-20.52-41.25h0Z"/>
    <path class="cls-1" d="M32.82,66.05c.29,15.96.39,33.82.5,49.89.29,9.92.46,23.5.52,33.26.03,15.87.25,34.58.22,49.75,7.67,2.78,44.5,16.06,51.31,18.53,33.48,12.62,68.95,24.99,102.47,37.5,0,0,10.21,3.86,10.21,3.86,0,0-.08.23-.08.23,0,0-10.29-3.62-10.29-3.62-23.47-8.31-48.42-17.75-71.73-26.25-23.32-8.21-58.52-21.29-81.99-29.94-.32-11.02-.25-22.3-.52-33.4-.29-15.48-.5-34.41-.41-49.89-.15-16.06-.53-33.9-.5-49.89,0,0,.29,0,.29,0h0Z"/>
    <path class="cls-1" d="M80.5,128.65c-5.35,8.61-11.98,17.87-17.27,26.52-5.56,8.97-11.84,17.47-17.51,26.36-.03.04-11.47,17.72-11.5,17.75-7.23,8.24-15.28,16.33-22.52,24.53-3.66,4.17-7.31,8.35-11.1,12.41-3.75,4.09-7.54,8.14-11.4,12.14l-.18-.16c3.63-4.2,7.32-8.35,11.05-12.46,7.42-8.25,15.28-16.1,22.52-24.53,3.14-3.61,7.89-8.76,11.2-12.31,6.76-10.12,16.69-24.9,23.12-35.25,3.73-5.97,7.95-11.61,11.74-17.53,0,0,5.74-8.85,5.74-8.85,1.95-2.93,3.87-5.87,5.87-8.77,0,0,.25.16.25.16h0Z"/>
    <path class="cls-1" d="M39.34,267.25c-1.36-14.06-2.11-28.53-3.64-42.58-.75-8.51-1.18-17.05-1.84-25.57,9.3-1.05,19.13-1.47,28.6-2.34,13.78-1.22,29.01-1.97,42.73-3.02,13.75-1.22,29-2.42,42.73-3.07,0,0,.02.24.02.24-13.65,1.33-28.94,2.39-42.72,3.15-13.71.93-28.91,2.44-42.72,3.2-9.24.49-19.74,1.56-28.36,1.81.72,8.52,1.65,17.01,2.28,25.54.46,8.23,1.15,17.32,1.91,25.57.51,5.67.93,11.36,1.31,17.04,0,0-.29.02-.29.02h0Z"/>
    <path class="cls-1" d="M-.67,48.83c5.81,25.04,11.95,50,17.42,75.11,1.05,4.7,3.24,14.1,4.36,18.78,2.21,9.35,6.67,28.17,8.87,37.52,1.45,6.26,2.78,12.55,4.18,18.82.05.16-.19.27-.28.14-9.6-11.74-20.65-24.48-30.24-36.34-3.31-4.07-6.61-8.16-9.88-12.28l.19-.15c13.56,15.63,26.99,32.66,40.18,48.57,0,0-.28.14-.28.14-1.51-6.25-3.07-12.48-4.53-18.74-2.13-9.37-6.41-28.22-8.53-37.6-4.09-18.69-9.25-37.61-13.06-56.33C4.87,73.93,1.76,61.46-.96,48.9l.29-.07h0Z"/>
    <path class="cls-1" d="M5.17,230.51c5.43,1.93,10.7,4.29,16.08,6.35,5.47,1.85,10.78,4.07,16.08,6.36,0,0-.14.32-.14.32-7.29-3.97-14.81-7.5-22.19-11.3-2.47-1.25-4.9-2.58-7.33-3.92-.24-.13-.06-.52.2-.4,2.41,1.03,4.82,2.03,7.27,2.95,4.35,1.58,10.45,3.85,14.66,5.61,2.42,1,4.83,2.02,7.22,3.09l-.09.23c-9.78-3.25-19.56-7.9-29.22-11.46,0,0,.19-.41.19-.41,2.49,1.2,4.98,2.42,7.42,3.71,7.36,3.83,14.58,7.93,22.04,11.59.19.09.07.4-.14.32-5.43-1.95-10.83-3.98-16.08-6.38-5.33-2.19-10.79-4.07-16.07-6.39,0,0,.11-.27.11-.27h0Z"/>
    <path class="cls-1" d="M10.66,223.73s26.63,13.4,26.55,13.36c29.87,11.54,67.12,3.51,97.93-1.29,0,0-.27.3-.27.3-.01.09,3.24-45.67,3.33-45.05-8.69-8.23-21.76-19.93-30.68-28.21.03.08-31.01-28.42-30.64-28.1-9.28-3.7-16.82-10.51-23.99-17.27-7.09-6.89-13.64-14.31-20.1-21.78,0,0,.36.02.36.02-2.88,2.74-6.14,5.2-9.9,6.62-3.74,1.44-7.95,1.61-11.79.47,0,0,.21-.14.21-.14-.52,5.12-1.02,10.24-1.48,15.37-.88,9.46-3.35,36.59-4.26,46.03.19,1.71,15.16,80.72,4.75,59.67h0ZM10.84,223.93c.78.92,1.24,2.59,2.45,3.03,1.6-.88.18-10.19.04-12.26-1.33-11.29-3.26-22.5-5.18-33.7,0,0-2.94-16.8-2.94-16.8-.06-.1,3.11-30.72,3.08-30.83.98-8.95,2.18-21.88,3.03-30.73.01-.1.11-.17.21-.14,3.79,1.09,7.89.9,11.56-.55,3.68-1.42,6.87-3.86,9.7-6.59.1-.1.27-.09.36.02,9.78,11.07,19.68,22.19,31.29,31.37,3.89,3,8.06,5.7,12.62,7.49.14-.03,30.58,28.32,30.69,28.35,8.88,8.34,21.79,20.09,30.65,28.24.17.09-2.95,45.19-2.89,45.33-.01.15-.12.27-.27.3-4.07.72-8.15,1.44-12.23,2.11-26.64,3.83-60.49,8.99-85.99-1.03-.02,0-26.16-13.6-26.18-13.6h0Z"/>
    <path class="cls-1" d="M12.87,107.29s20.03-7.22,20.03-7.22c.09-.03.19,0,.24.07,8.76,10.95,17.4,22.2,28.07,31.4,3.57,3.03,7.53,5.8,12.04,7.14,7.44,8.38,18.04,19.93,25.57,28,8.71,9.07,17.52,18.34,28.18,25.14,1.05,4.91,1.7,10,2.53,14.99.55,5.03,5.55,31.8,1.1,33.35-2.71.22-5.88-6.4-7.17-8.51,0,0,.18.11.18.11-25.2.04-62.06.53-86.93.29,0,0-21.29-12.08-21.29-12.08l.18-.21c5.04,6.06-.38-21.66-.59-23.27-1.53-8.83-3.5-17.62-5.19-26.4,1.69-4.91,2.3-10.18,2.78-15.39,1.25-15.79.65-31.54.27-47.39h0ZM13.07,107.47c.82,18.29,1.75,36.9-.69,55.13-.39,2.26-1.09,6.11-1.87,7.52,1.77,8.73,3.48,17.47,4.98,26.26.36,3.06,4.62,24.5,1.28,24.58-.66-.14-1.02-.63-1.39-1.04-.11-.11.05-.3.18-.21-.06-.07,21.77,12.12,21.26,11.89,12.81-.18,30.78-.19,43.41-.23,0,0,43.41-.04,43.41-.04,1.77,2.51,3.03,5.68,5.4,7.81,5.07,4.39,2.4-15.39,2.28-17.39-.97-9.72-3.11-20.53-4.52-29.59-10.76-6.75-19.66-15.96-28.48-25-8.75-9.14-17-18.73-25.33-28.24-4.06-1.07-8.52-4.22-11.98-7.12-10.69-9.21-19.52-20.33-28.2-31.38,0,0,.24.07.24.07-.02,0-19.95,6.99-19.97,7h0Z"/>
    <path class="cls-1" d="M14.52,114.68c5.51,1.84,10.92,1.34,15.21-2.83,1.32-1.23,2.46-2.65,3.49-4.15.09-.13.29-.13.38,0,7.05,9.74,23.47,36.71,35.39,37.87,14.56,12.98,36.82,33.85,51.33,47.2-1.15,5.76-2.62,11.6-3.87,17.39,0,0-3.88,17.27-3.88,17.27-12.59,1.82-25.69,2.45-38.51,2.73-12.75-.04-25.91.04-38.07-4.34-.16-.22-15.56-11.63-15.61-11.92.56-12.02-1.25-24.02-4.02-35.69-.79-18.08-1.3-45.21-1.84-63.53h0ZM14.67,114.91c.75,18.32,1.82,45.21,2.31,63.28,1.3,5.53,2.42,11.83,3.07,17.71.6,5.78,1.01,12.57.56,17.89-.05-.04,15.79,11.76,15.56,11.61,12.06,4.24,25.23,3.96,37.89,4.14,12.48.1,26.5-1.35,38.12-2.2,0,0,3.97-17.25,3.97-17.25,1.36-5.52,2.66-12.09,3.99-17.13-14.69-13.32-37.18-33.64-51.49-47.02-11.14-.96-28.54-28.31-35.43-37.98,0,0,.38,0,.38,0-1.05,1.51-2.22,2.95-3.58,4.2-3.99,3.95-10.24,4.95-15.35,2.75h0Z"/>
    <path class="cls-1" d="M24.07,209.7s11.61,8.12,11.63,8.14c0,0-.1-.04-.1-.04,16.26,1.43,34.44,3.42,50.71,4.69,5.64.46,11.28.92,16.91,1.49,0,0-.38.27-.38.27-.05.09,8.22-32.23,8.25-31.31-8.83-5.66-16.4-13-23.94-20.22-7.48-7.3-14.72-14.85-21.95-22.41l.23.09c-1.99.21-3.99-.24-5.8-1.01-8.84-4.32-14.55-12.89-20.2-20.6-2.21-3.18-4.34-6.41-6.43-9.66l.32.02c-4.14,4.51-10.47,11.82-14.19,15.85,1.17,11.65,2.63,24.38,2.92,36.03,0,3.84.17,8.66-.79,11.96.75,6.65,2.13,20.06,2.79,26.72h0ZM23.87,209.89c-.83-6.7-2.45-20.13-3.21-26.84.93-3.88.74-8.02.69-12.01-.4-11.59-1.51-24.4-2.57-36.01,4.07-4.73,10.11-11.34,14.25-16.15.09-.1.25-.09.32.02,2.12,3.23,4.28,6.43,6.52,9.58,4.5,6.21,9.21,12.46,15.16,17.34,2.93,2.3,6.5,4.38,10.34,4.02,7.39,7.37,14.47,15.32,22.02,22.62,7.46,7.25,14.98,14.68,23.88,20.17.38.14-7.85,31.59-7.75,31.8-.04.17-.21.28-.38.27-5.64-.48-11.27-1.08-16.89-1.67-5.63-.57-11.25-1.21-16.89-1.69-10.02-1.05-24.06-2.02-33.91-3.15,0,0-11.59-8.3-11.59-8.3h0Z"/>
    <path class="cls-1" d="M33.25,126.51c4.41,5.56,8.45,10.94,13.03,16.26,4.52,5.13,9.09,10.68,15.25,13.84,6.25,7.2,12.86,14.09,19.66,20.76,6.81,6.56,14.13,12.99,22.95,16.65.09.04.14.14.1.24-1.9,4.34-3.83,8.66-5.67,13.02,0,0-5.58,13.06-5.58,13.06-.03.08-.12.12-.2.11-16.75-2.97-41.29-7.02-57.79-10.17-.04,0-.08-.03-.11-.05l-6.19-5.22c-.78-4.44-1.22-9.01-1.98-13.48-.38-1.91-.62-4.73-.82-6.69-.61-6.51-1.41-13.66-1.99-20.14-.41-4.53-.87-9.07-1.17-13.6,2.61-6.13,7.85-18.5,10.52-24.6h0ZM33.27,126.78c-2.38,5.87-7.64,19.19-9.91,24.43,1.11,11.1,2.03,22.46,2.95,33.59.42,6.5,1.92,13.97,2.63,19.92,0,0,6.25,5.15,6.25,5.15l-.11-.05c16.49,2.77,41.12,7.25,57.77,10.28,0,0-.2.11-.2.11,0,0,5.68-13.02,5.68-13.02,1.91-4.33,3.73-8.7,5.59-13.05l.1.24c-8.93-3.59-16.38-9.96-23.32-16.47-6.94-6.58-13.07-13.93-19.4-21.07-5.96-2.93-10.85-8.71-15.36-13.75-4.4-5.19-8.79-10.8-12.66-16.3h0Z"/>
    <path class="cls-1" d="M34.55,204.54c8.26,1.39,20.93,3.46,28.54,4.98,0,0,12.08-7.52,12.08-7.52l11.96-7.71c.15-.1.36-.06.46.1.08.12.07.28-.02.38-2.3,3.12-4.63,6.21-6.99,9.28l-7.06,9.23-.38-.35c6.1-5.51,14.89-13.08,20.86-18.58,0,0,.04.23.04.23-3.7-1.72-7.11-3.98-10.35-6.43-9.67-7.44-18.06-16.38-26.5-25.13,0,0,.44.05.44.05-5.93,3.73-11.47-3.68-14.76-7.82-3.58-4.83-6.57-10.04-9.44-15.28,0,0,.25-.03.25-.03.06-.04-7.02,27.39-6.89,26.81.57,4.46,1.07,8.93,1.59,13.39,0,0,1.54,13.4,1.54,13.4.56,2.36,1.44,5.73,1.87,7.91,0,0,2.79,3.1,2.79,3.1h0ZM34.49,204.82l-.03-.03s-2.96-3.09-2.96-3.09c-.77-2.67-1.44-5.39-2.13-8.09-.9-7.94-2.52-19.06-3.3-26.9,0,0,7.32-26.83,7.32-26.83.03-.11.2-.14.25-.03,1.46,2.61,2.96,5.2,4.54,7.73,3.31,4.95,11.87,19.5,19.03,14.95.14-.1.32-.07.44.05,11.1,11.68,22.47,24.27,36.52,32-6,5.39-14.66,13.23-20.7,18.76-.24.2-.57-.1-.38-.35,4.06-5.53,9.83-13.23,13.94-18.6,0,0,.44.48.44.48l-12.15,7.4-12.04,7.59c-8.37-1.2-20.33-3.56-28.8-5.02h0Z"/>
    <path class="cls-1" d="M33.44,151.08c1.39,3.34,10.79,34.15,15.42,29.24,1.93-2.64,2.08-6.18,2.6-9.32.01-.13.17-.2.27-.12,0,0,8.13,6.05,8.13,6.05,7.91,5.8,16.73,12.07,24.54,17.91.33.24.03.81-.37.62,0,0-36.58-16.85-36.58-16.85-1.55-.08-3.6-.99-4.93-2.1-4.23-3.47-6.82-8.47-9.15-13.31,0,0,.29-.02.29-.02,0,0-4.4,14.79-4.4,14.79l-.33-.21s4.54-4.24,4.54-4.24c.08-.08.21-.08.3,0-.01,0,10.75,9.51,10.39,9.25,0,0,18.3,6.44,18.3,6.44,6.11,2.12,12.18,4.36,18.26,6.55.15.05.22.21.17.36-.05.13-.19.21-.32.18-6.54-1.41-23-4.95-29.3-6.31,0,0-9.79-2-9.79-2-.03,0-.06-.02-.08-.04l-7.7-6.4s.3.02.3.02l-3.43,2.25.06-.43,3.14,3.42c-.43-.29,5.93,3.42,5.83,3.35,6.72,1.9,14.34,4.26,21.35,6.34.17.05.26.22.22.39-.04.15-.19.24-.34.23-7.7-.97-15.4-1.88-23.1-2.9l.14-.34,5.18,4.06s-.15.19-.15.19l-5.27-3.94c-.15-.12-.05-.37.14-.34,7.72.83,15.42,1.77,23.13,2.65l-.13.62c-7.18-2.11-14.38-4.14-21.53-6.33,0,0-5.87-3.47-5.87-3.47-.03-.02-.06-.04-.08-.06l-3.08-3.47c-.12-.13-.09-.34.06-.43,0,0,3.46-2.2,3.46-2.2.09-.06.22-.05.3.02l7.63,6.49c-.45-.15,9.78,2.1,9.68,2.07,6.26,1.29,22.91,4.7,29.36,6.02,0,0-.15.54-.15.54-10.58-3.65-25.86-9.17-36.55-13.01-.1-.02-10.41-9.37-10.5-9.42,0,0,.3,0,.3,0l-4.57,4.21c-.14.15-.4-.02-.33-.21,0,0,4.49-14.76,4.49-14.76.04-.13.24-.15.29-.02,2.29,4.81,4.79,9.85,9.02,13.24,1.41,1.13,3.12,1.85,4.9,2.02,0,0,36.75,16.48,36.75,16.48l-.37.62c-5.45-3.99-10.81-8.09-16.2-12.16-4.02-3.06-12.16-9.13-16.24-12.11,0,0,.27-.12.27-.12-.38,2.81-.71,5.69-1.86,8.32-.32.66-.72,1.33-1.38,1.73-4.52,2.18-10.33-15.81-11.73-19.19-1.29-3.55-2.51-7.13-3.67-10.72,0,0,.28-.09.28-.09h0Z"/>
  </g>
  <path class="cls-1" d="M-8.11-5.75C96.95,107.97,247.42,222.5,401.47,253.76c22.97,4.67,46.3,7.46,69.72,8.32-22.87.26-47-3.3-69.87-7.61-92.17-19.28-176.73-64.8-252.44-119.74-38.15-27.31-74.02-57.7-108.04-90-8.5-8.07-16.92-16.24-25.14-24.6C7.52,11.74-.57,3.24-8.33-5.56c0,0,.22-.19.22-.19h0Z"/>
  <path class="cls-1" d="M94.4,91.96c3.2,2.64,5.17,6.38,7.48,9.73,4.49,7.1,12.59,10.15,19.61,14.12,3.59,1.96,7.1,4.23,9.95,7.27,5.45,5.43,8.25,15.96,17.36,15.63,2.02-.06,4.11-.48,6.15.11,4.2,1.38,5.53,6.21,6,10.13.83,6.02-.74,12.44,1.37,18.2,1.36,3.79,4.91,6.58,8.83,7.2,3.92.65,8.15-1.01,10.64-4.17,1.81-2.35,3-5.68,6.03-6.84,2.03-.97,4.64-.39,4.92,2.18.34,3.08-.15,6.13.06,9.23.17,12.28.08,24.56-.16,36.84,0,0-.24,0-.24,0-.24-12.28-.33-24.56-.16-36.84.04-2.03,0-4.11.23-6.15.38-3.39-.42-6.66-4.54-5-3,1.21-4,4.39-5.79,6.85-5.56,7.45-17.24,5.66-20.36-3.09-2.7-7.83.8-16.57-2.7-24.23-5.06-9.76-11.82,1.76-20.76-9.81-2.61-3.19-4.59-6.83-7.41-9.73-2.8-2.92-6.14-5.3-9.62-7.42-6.94-4.2-15.24-7.03-19.8-14.2-2.27-3.4-4.19-7.05-7.28-9.78,0,0,.2-.22.2-.22h0Z"/>
  <path class="cls-1" d="M252.58,198.37c0,.39-.22,1.16-.19,1.43.35.27.61-.29.59-.68,0,0,.29.03.29.03-.04.37.03.8.07,1.18,0,.04.03.04,0-.05-.05-.09-.16-.1-.18-.09-.1.03-.04.04.03-.09.14-.23.55-.72.71-.94.08-.13.25-.19.37-.09.09.07.11.19.07.29-.22.46-.43.92-.58,1.41l-.15-.15c.49-.19.87-.67.91-1.18.02-.26.43-.2.38.06,0,0-.04,1.64-.04,1.64l-.43-.33c.33-.15.52-.61.44-.95l.62-.1c-.07.53-.19,1.07-.23,1.6l-.27-.07c.18-.33.33-.68.45-1.04.06-.2.36-.15.37.05,0,0,0,.06,0,.06,0,0,.08,1.09.08,1.09,0,1.09-.14,2.17-.43,3.23,0,0-.24-.02-.24-.02-.21-1.44-.15-2.93.19-4.34,0,0,.37.1.37.1-.22.31-.4.64-.55.99-.06.14-.28.08-.27-.07,0-.54-.09-1.07-.13-1.61-.01-.17.12-.32.29-.33.16-.01.28.09.33.23.29.7-.11,1.53-.82,1.76-.22.1-.47-.09-.43-.33,0,0,.28-1.61.28-1.61l.38.06c-.18.61-.63,1.1-1.21,1.32-.06.02-.13,0-.15-.07.1-.51.26-1.03.33-1.56,0,0,.44.2.44.2-.12.25-.37.83-.51,1.07-.06.08-.15.36-.52.44-.15.03-.4-.01-.53-.22-.2-.34-.02-.53.04-.82.09-.26.16-.52.2-.78.01-.08.08-.14.16-.13.08.01.14.08.13.17-.02.4-.15,1.09-.71,1.14-.18.03-.43-.02-.57-.24-.13-.21-.1-.43-.06-.56l.1-.4c.08-.26.16-.52.26-.77l.29.07h0Z"/>
</svg>