<?xml version="1.0" encoding="UTF-8"?>
<svg id="BACKGROUND" xmlns="http://www.w3.org/2000/svg" viewBox="0 0 369.26 291.99">
  <defs>
    <style>
      .cls-1 {
        opacity: .6;
      }

      .cls-2 {
        fill: #ffffff;
      }

      .cls-3 {
        opacity: .5;
      }
    </style>
  </defs>
  <g>
    <path class="cls-2" d="M370.68,292.06C299.56,174.94,184.3,36.26,51.8-9.86c-9.4-3.2-18.93-6.03-28.58-8.39,0,0,.05-.24.05-.24C42.7-14.13,61.58-7.57,79.75.53c72.6,33.33,133.22,87.76,185.74,147.1,26.52,29.66,50.75,61.28,73.27,94.06,5.65,8.18,11.21,16.42,16.6,24.78,5.35,8.38,10.61,16.82,15.58,25.44l-.26.15h0Z"/>
    <path class="cls-2" d="M295.12,185.12c2.62-5.47,6.73-10.86,10.32-15.75,3.57-5.18,8.09-9.67,12.66-13.94,6.87-6.43,14.17-12.56,22.49-17.04,3.63-1.95,7.57-3.77,11.33-5.44,6.66-3.1,13.83-5.06,21.08-6.1,0,0,.04.24.04.24-4.07.98-8.14,1.89-12.1,3.2-8.04,2.29-15.74,5.68-22.75,10.23-7.1,4.38-13.93,9.28-19.91,15.12-3,2.91-5.73,6.08-8.45,9.24-2.71,3.17-5.55,6.26-7.84,9.76-2.34,3.45-4.57,6.99-6.62,10.62,0,0-.26-.13-.26-.13h0Z"/>
    <path class="cls-2" d="M300.07,3.15c3.5,11.02,6.73,22.69,10.38,33.65,3.26,11.28,6.42,22.59,10.02,33.76,3.63,11.17,6.78,22.48,10.09,33.74,3.58,11.18,7.12,22.37,10.14,33.73,0,0-.23.07-.23.07-3.76-11.13-6.99-22.41-10.19-33.71-5.39-16.77-10.19-33.71-15.24-50.58-1.72-5.61-3.61-11.17-5.3-16.79-1.69-5.62-3.07-11.34-4.89-16.92,0,0-2.6-8.41-2.6-8.41-.82-2.82-1.68-5.62-2.46-8.46l.28-.09h0Z"/>
    <path class="cls-2" d="M300.08,3.2c-.24,14.89-.95,30.46-1.03,45.34-.57,15.11-1.17,30.21-1.4,45.33-.2,13.31-.87,32.2-1.33,45.33-.22,15.12-.47,30.23-1.28,45.33,0,0-.24,0-.24,0,.03-15.12.61-30.23,1.23-45.33.32-21.79,1.23-46.21,1.89-68,.18-7.56.19-15.12.39-22.67.23-7.55.74-15.1.82-22.66,0,0,.25-11.33.25-11.33.13-3.78.22-7.55.4-11.33h.29Z"/>
    <path class="cls-2" d="M300.06,3.25c-4.1,10.45-8.8,21.23-12.74,31.73-4.44,10.5-8.98,20.95-13.08,31.59-4.09,10.64-8.63,21.1-13.02,31.62-4.13,10.62-8.3,21.23-12.97,31.64,0,0-.22-.09-.22-.09,3.96-10.7,8.42-21.18,12.93-31.65,6.18-15.94,12.92-31.65,19.43-47.46,2.13-5.29,4.1-10.64,6.26-15.91,2.17-5.27,4.63-10.42,6.66-15.75,0,0,3.17-7.94,3.17-7.94,1.11-2.63,2.17-5.27,3.32-7.88,0,0,.27.11.27.11h0Z"/>
    <path class="cls-2" d="M300.04,3.29c-6.46,8.06-13.57,16.22-19.89,24.38-6.79,7.99-13.66,15.92-20.17,24.14-6.5,8.24-13.37,16.16-20.12,24.19-6.53,8.21-13.09,16.39-20.08,24.22,0,0-.19-.15-.19-.15,6.39-8.33,13.2-16.3,20.04-24.25,9.78-12.32,20.04-24.25,30.09-36.35,3.32-4.06,6.51-8.23,9.85-12.27,3.35-4.03,6.94-7.86,10.18-11.99,0,0,4.96-6.1,4.96-6.1,1.69-2,3.35-4.03,5.08-6,0,0,.23.19.23.19h0Z"/>
    <path class="cls-2" d="M300,3.33c-9.52,5.43-19.71,10.72-29.14,16.28-9.81,5.25-19.68,10.4-29.32,15.96-9.63,5.58-19.5,10.73-29.28,16.02-9.65,5.54-19.32,11.04-29.26,16.07,0,0-.12-.21-.12-.21,9.56-5.7,19.39-10.92,29.23-16.11,14.47-8.32,29.23-16.11,43.87-24.13,4.86-2.71,9.64-5.56,14.51-8.25,4.88-2.67,9.91-5.07,14.72-7.87,0,0,7.28-4.08,7.28-4.08,2.45-1.31,4.88-2.67,7.35-3.94,0,0,.14.26.14.26h0Z"/>
    <path class="cls-2" d="M299.97,3.34c-11.79,3.62-24.26,6.98-36,10.75-12.06,3.36-24.13,6.7-36.1,10.39-10.54,3.26-25.61,7.5-36.08,10.46-11.96,3.7-23.94,7.37-36.07,10.51,0,0-.07-.23-.07-.23,11.91-3.88,23.98-7.24,36.05-10.56,17.25-5.33,36.75-10.78,54.09-15.79,6-1.78,11.96-3.73,17.96-5.49,6.01-1.74,12.11-3.2,18.08-5.08,0,0,9-2.69,9-2.69,3.01-.85,6.01-1.74,9.04-2.55l.08.28h0Z"/>
    <path class="cls-2" d="M299.94,3.34c-15.2,1.42-31.16,2.44-46.34,4.02-15.46,1.11-30.93,2.2-46.37,3.65-13.59,1.28-32.93,2.71-46.36,3.71-15.44,1.46-30.87,2.89-46.36,3.77,0,0-.02-.24-.02-.24,15.42-1.65,30.88-2.75,46.35-3.82,22.25-2.1,47.25-3.91,69.53-5.68,7.72-.66,15.43-1.49,23.16-2.13,7.73-.61,15.48-.95,23.19-1.7,0,0,11.58-1.01,11.58-1.01,3.87-.29,7.73-.62,11.6-.86,0,0,.02.29.02.29h0Z"/>
    <path class="cls-2" d="M300.05,3.12c5.96,9.11,11.82,18.89,17.91,27.9,5.79,9.41,11.49,18.88,17.59,28.09,6.12,9.21,11.81,18.68,17.65,28.06,6.08,9.23,12.12,18.48,17.7,28.03,0,0-.2.13-.2.13-6.23-9.13-12-18.56-17.74-28-9.13-13.84-17.74-28-26.57-42.03-2.98-4.65-6.1-9.22-9.06-13.88-2.95-4.67-5.62-9.52-8.69-14.11,0,0-4.49-6.97-4.49-6.97-1.45-2.35-2.94-4.68-4.35-7.05,0,0,.25-.16.25-.16h0Z"/>
    <path class="cls-2" d="M300.02,3.08c7.12,5.09,14.08,10.63,21.33,15.61,6.99,5.37,13.91,10.83,21.11,15.91,7.22,5.07,14.13,10.53,21.15,15.85,7.19,5.1,14.35,10.24,21.19,15.81,0,0-.14.19-.14.19-7.3-4.95-14.27-10.35-21.21-15.77-10.79-7.64-21.21-15.77-31.8-23.7-3.55-2.61-7.2-5.08-10.74-7.71-3.53-2.64-6.87-5.53-10.48-8.06,0,0-5.34-3.89-5.34-3.89-1.75-1.34-3.52-2.64-5.25-4.02l.18-.24h0Z"/>
    <path class="cls-2" d="M299.97,3.06c7.86,2.23,15.3,4.81,23.34,6.91,7.72,2.5,15.4,5.11,23.23,7.27,7.83,2.14,15.52,4.75,23.25,7.2,7.82,2.18,15.62,4.4,23.27,7.15,0,0-.07.23-.07.23-7.87-2.01-15.58-4.54-23.28-7.1-11.73-3.26-23.28-7.1-34.91-10.7-3.89-1.16-7.83-2.16-11.71-3.34-3.88-1.2-7.66-2.7-11.58-3.75-3.38-.98-8.33-2.44-11.63-3.58,0,0,.09-.28.09-.28h0Z"/>
    <path class="cls-2" d="M299.93,3.34c-18.26-.09-37.37-.64-55.62-.58-18.54-.42-37.07-.86-55.61-.95-16.32-.06-39.51-.55-55.61-.88-18.54-.07-37.08-.17-55.61-.82,0,0,0-.24,0-.24,18.54-.12,37.08.31,55.61.78,26.73.1,56.69.77,83.42,1.21,18.54-.06,37.08.44,55.61.76,0,0,13.9.14,13.9.14,4.63.1,9.27.15,13.9.29v.29h0Z"/>
    <path class="cls-2" d="M299.93,3.05c8.74.13,17.51.72,26.32.68,8.76.44,17.53.98,26.31,1.05,8.78.05,17.54.6,26.31.98,8.78.1,17.55.24,26.31.93,0,0,0,.24,0,.24-8.79.09-17.55-.38-26.31-.88-13.17-.13-26.31-.88-39.47-1.36-4.39-.12-8.78-.07-13.16-.22-4.38-.16-8.76-.64-13.15-.65,0,0-6.58-.16-6.58-.16-2.19-.1-4.38-.17-6.57-.32,0,0,.01-.29.01-.29h0Z"/>
    <path class="cls-2" d="M94.48-13.41s7.46,11.23,7.46,11.23c-.22-.21,11.57,9.46,11.53,9.41,0,0,11.59,9.56,11.51,9.5,10.39,6.68,24.39,15.83,34.68,22.24,0,0,4.35,2.76,4.35,2.76,8.16,4.74,22.66,13.51,30.94,18.49,10.36,8.04,24.66,19.51,34.91,27.38,19.09,12.73,48.23,31.06,67.95,43.37-1.64.58,36.01-22.59,35.54-22.36,6.15-5.96,15.45-15.58,21.24-21.23,1.4-12.43,3.48-31.59,4.99-43.86,1.32-10.9,4.01-32.91,5.18-43.83,0,0,.24.03.24.03-.73,7.32-1.38,14.65-2.21,21.96-2.4,20.25-5.17,45.7-7.83,65.89-6.39,6.33-15.17,15-21.36,21.3-.01.04-35.78,22.65-35.8,22.68-.12.07-.26.07-.37,0-19.78-12.54-48.57-30.82-67.74-43.73-10.08-7.86-24.87-19.3-35.03-27.14-8.33-4.93-22.87-13.45-30.98-18.44-7.14-4.64-14.41-9.47-21.57-14.07-.02-.01-17.34-11.12-17.36-11.13,0,0-11.58-9.45-11.58-9.45,0-.03-11.58-9.51-11.58-9.55,0,0-7.36-11.29-7.36-11.29,0,0,.25-.16.25-.16h0Z"/>
    <path class="cls-2" d="M352.28-2.7c1.48,6.3,2.99,12.6,4.37,18.91-1.88,6.71-3.93,13.68-5.81,20.25,0,0-1.59,18.29-1.59,18.29,0,0-1.4,18.31-1.4,18.31,0,.08-.04.15-.1.2-5.32,5.18-13.57,12.35-19.11,17.48,0,.11-30.92,13.61-30.96,13.68-5.76-1.97-11.53-4.06-17.29-6.05,0,0-17.2-6.03-17.2-6.03-.05.03-24.06-17.14-24.1-17.14-10.15-5.38-25.01-13.63-35.34-19.3-3.02-3.4-10.95-12.45-13.88-15.78,0,0-4.66-5.2-4.66-5.2l.05.04c-11.27-6-28.41-14.86-39.52-20.9,0-.05-24.17-16.08-24.16-16.16,0,0-6.42-9.99-6.42-9.99,0,0,.2-.13.2-.13,0,0,6.62,9.86,6.62,9.86-.36-.31,24.21,15.91,24.14,15.84,10.95,5.77,28.1,15.16,39.3,21.18,2.33,2.64,6.94,7.88,9.3,10.49-.02-.05,9.5,10.61,9.25,10.35,10.55,5.6,25.16,13.56,35.47,19.22-.04-.05,24.14,17.4,23.9,17.23,0,0,17.17,6.12,17.17,6.12,5.57,2.02,11.87,4.18,17.08,6.1-.09.04,31.08-14.09,30.67-13.87,5.53-5.14,13.54-12.51,19.11-17.48-.25,1.09,1.66-18.34,1.61-18.09,0,0,1.52-18.3,1.52-18.3,1.91-6.78,3.79-13.57,5.74-20.34-1.39-5.65-2.84-12.63-4.22-18.72,0,0,.29-.07.29-.07h0Z"/>
    <path class="cls-2" d="M345.84-4.38c.23,4.26.55,11.68.74,15.85-.07.54-.38,19.26-.5,20.44-2.1,5.97-6.17,18.01-8.13,24.03-3.7,5.94-9.61,14.18-13.57,20.08-.04.06-.11.11-.18.12l-24.92,5.86c-5.16-.4-10.33-.77-15.49-1.11-.08-.03-15.46-1.02-15.53-1.08-.05-.03-23.39-11.91-23.42-11.95-7.68-5.8-18.96-14.71-26.63-20.71-3.66-5.91-8.97-14.31-12.66-20.1-8.8-4.7-22.7-12.18-31.62-17.13,0,0-19.5-13.86-19.5-13.86-1.53-3.91-2.77-7.98-4.19-11.95,0,0,.23-.08.23-.08,1.25,3.67,3.29,8.43,4.26,11.61,0,0,19.61,13.69,19.61,13.69,8.85,4.85,22.41,12.4,31.49,17.54,3.48,5.65,9.25,14.46,12.67,19.9,7.83,5.89,19.08,14.68,26.7,20.62-.26-.1,23.31,12.06,23.24,12.05-.4,0,15.45,1.11,15.36,1.14,5.07.4,10.5.78,15.4,1.11,0,0,24.85-6.14,24.85-6.14,0,0-.18.12-.18.12,0,0,6.72-10.04,6.72-10.04,2.22-3.22,4.7-6.93,6.82-9.88,2.14-5.94,6.32-17.98,8.31-23.97-.01-2.96.5-19.72.29-22.58-.09-2.97-.41-10.53-.49-13.58,0,0,.29-.01.29-.01h0Z"/>
    <path class="cls-2" d="M174.8-12.3l.35,7.26s-.04-.11-.04-.11c2.32,3.17,7.72,10.38,9.7,13.26,8.41,3.75,25.34,11.02,33.84,14.53,1.88,2.89,3.36,6.13,5.1,9.14,0,0,4.9,9,4.9,9,3.8,2.73,13.87,10.36,17.85,13.24,0,0,6.02,4.38,6.02,4.38-.06-.03,19.9,11.77,19.89,11.76,7.16-.41,19.36-.87,26.97-1.15-.54.17,21.66-6.89,21.05-6.59,3.39-4.86,8.05-12.37,11.35-17.37-.06.23,3.51-9.23,3.51-9.18,0,0,3.61-9.19,3.61-9.19-.03.61,1.39-17.46,1.4-17-.69-3.79-1.89-11.48-2.51-15.29,0,0,.24-.04.24-.04.74,3.8,2.15,11.43,2.82,15.23-.05.2-1.18,17.18-1.27,17.37,0,0-3.65,9.18-3.65,9.18-.02.04-3.72,9.16-3.74,9.19-3.35,5.02-8.26,12.28-11.46,17.3.02.16-21.19,6.93-21.23,7.03-7.9.41-19.33.71-27.34.94-.01,0-19.81-11.94-19.82-11.94,0,0-5.98-4.43-5.98-4.43-4.16-2.98-13.89-10.11-18.15-13.2,0,0-5.02-8.93-5.02-8.93-1.66-2.98-3.37-5.94-5-8.94l.17.16c-8.32-3.8-25.28-11.25-33.72-14.81-2.51-3.28-7.42-10.05-9.86-13.41-.02-.03-.04-.07-.04-.11,0,0-.24-7.26-.24-7.26,0,0,.29-.01.29-.01h0Z"/>
    <path class="cls-2" d="M331.69-6.55c1.24,4.81,2.51,9.64,3.64,14.47-.73,2.5-2.6,8.5-3.31,10.9-1.61,6.14-3.13,12.3-4.57,18.48-2.91,4.96-5.88,9.87-8.94,14.74-6.2,2.69-12.66,5-18.96,7.53-6.74.32-16.52.83-23.35,1.19-.05-.03-18.13-9.24-18.17-9.29-5.67-4.82-13.78-11.46-19.31-16.29-3.33-3.66-10.14-11-13.51-14.63-5.46-4.55-13.33-11.08-18.94-15.68-5.88-2.85-14.92-7.56-21.09-10.68-1.2-4.03-1.82-8.39-2.8-12.53,0,0,.24-.05.24-.05,1,4.08,2.01,8.17,2.98,12.26,0,0-.15-.19-.15-.19,0,0,10.62,5.27,10.62,5.27,3.56,1.78,7.13,3.54,10.66,5.38,0,0,9.32,8.03,9.32,8.03,3.1,2.69,6.24,5.34,9.37,8,3.43,3.61,10.3,10.83,13.75,14.4,5.44,4.55,13.65,11.51,19.21,16.3-.29-.11,18.05,9.39,17.98,9.38,6.29-.43,16.6-.71,23.17-1.18,5.65-2.28,13.23-5.7,18.38-7.58,2.93-4.81,6.17-10.05,9.11-14.54,2.03-7.29,3.51-14.81,5.7-22.06,0,0,2.14-7.29,2.14-7.29-1.12-4.11-2.35-9.67-3.47-14.27,0,0,.29-.07.29-.07h0Z"/>
    <path class="cls-2" d="M327.29-10.04s.04,2.19.03,2.09c.49,3.8,1.18,9.03,1.6,12.77,0,.03,0,.06,0,.08,0,0-2.61,9.65-2.61,9.65-1.32,3.07-2.85,6.47-4.11,9.59-2.28,5.37-4.9,10.74-7.73,15.79-8.35,2.6-17.57,5.66-25.67,8.81,0,0-8.48,3.17-8.48,3.17-.05.02-.11.01-.16,0l-15.82-7.91c-5.96-4.38-11.82-8.89-17.65-13.44-3.51-4.5-7.07-8.97-10.7-13.37-7.73-5.43-17.09-11.62-24.45-17.82,0,0-7.8-6.43-7.8-6.43l.15-.19,8,6.16c7.59,6.06,16.65,12.09,24.41,18.03,3.43,4.43,7.2,9.11,10.64,13.29,2.97,2.19,5.96,4.35,8.91,6.57,2.89,2.15,6.08,4.59,8.77,6.66,0,0,15.73,8.09,15.73,8.09,10.18-3.88,23.08-8.45,33.91-12.25,0,0-.19.17-.19.17,2.04-4.15,4.06-8.3,6.25-12.38,2.09-4.08,3.87-8.52,5.67-12.62,0,0,2.5-9.68,2.5-9.68-.31-1.65-.5-4.32-.78-6.3,0,0-.74-6.39-.74-6.39,0-.02.03-2.11.03-2.13,0,0,.29,0,.29,0h0Z"/>
    <path class="cls-2" d="M365.57,105.14c-4.28,4.36-8.86,8.43-13.25,12.67-4.25,4.4-8.67,8.62-13.24,12.7-6.21,2.63-14.99,6.78-21.19,9.69-6.99,3.35-14.23,6.14-21.24,9.43,0,0-.05-.32-.05-.32,8.28.78,16.53,1.8,24.73,3.16,0,0-.03.24-.03.24-8.29-.72-16.53-1.77-24.75-3.06-.16-.01-.21-.26-.05-.32,7.11-3.08,13.99-6.66,21.13-9.68,6.29-2.74,15.15-6.5,21.23-9.45,4-4.15,8.73-8.63,13.23-12.6,4.44-4.2,8.71-8.58,13.27-12.66,0,0,.2.21.2.21h0Z"/>
    <path class="cls-2" d="M280.31,167.33c2.2-3.94,5.51-9.64,7.91-13.55,2.73-4.46,5.01-9.19,7.75-13.65,0,0,.16.5.16.5l-10.94-5.19c-10.55-4.93-22.66-9.82-33.13-14.92-10.53-7.2-21.61-13.54-31.97-21,0,0,.13-.2.13-.2,2.73,1.65,5.43,3.33,8.12,5.04,8.1,5.07,15.78,10.78,23.94,15.75,10.56,4.43,22.42,10.41,33.02,15.08,0,0,11.12,4.81,11.12,4.81.19.08.26.31.16.49-1.29,2.28-2.63,4.53-4.04,6.74-2.44,3.85-5.66,9.52-7.93,13.54-1.35,2.24-2.65,4.51-4.04,6.73,0,0-.25-.15-.25-.15h0Z"/>
  </g>
  <g class="cls-3">
    <path class="cls-2" d="M-.67-16.39c17.45,60.8,43.71,119.91,82.27,170.35,3.25,4.23,7,8.75,10.49,12.79,4.28,4.9,9.63,10.48,14.2,15.03,73.81,74.26,190.37,69.86,284.57,44.12,0,0,.07.23.07.23-10.55,3.28-21.29,5.89-32.1,8.13-10.82,2.23-21.71,4.09-32.66,5.54-48.52,6.04-100.9,5.18-147.34-11.39-31.61-11.18-58.81-30.76-81.39-55.36-18.72-20.24-34.7-43.11-48.28-67.07-10.87-19.23-20.09-39.34-28.61-59.71C12.47,25.99,3.99,4.42-.67-16.39h0Z"/>
  </g>
  <g class="cls-3">
    <path class="cls-2" d="M50.69,105.74c.23,1.3.01,2.91.69,4.04.8,1.15,2.65,1.14,3.35,2.51.33.76.04,1.52-.03,2.18-.2,1.36,1.17,1.32,2.01,1.95,1.01.82,1.03,2.51-.02,3.34,0,0-.19-.64-.19-.64,1.35.1,3.24.81,3.04,2.55-.07.93.48,1.61.85,2.43.64,1.32-.5,2.64-.2,4,.75,3.43,2.08,6.93,2.98,10.32.56,1.62.72,3.55,1.72,4.93,2.06,2.26,4.99-.33,7.39-.61,1.74-.37,3.63,1.14,3.45,3-.09.63-.28.99.51,1,.42.04.96-.04,1.5.21.27.18.45.53.47.81.1.67-.24,1.43-.04,1.99.29.7,1.87,1.27,1.22,2.31,0,0-.2-.14-.2-.14.17-.32-.1-.74-.42-.97-.33-.25-.84-.45-1.08-1-.22-.53-.13-1.05-.11-1.49.04-.45,0-.83-.22-.96,0,0,.07.04.07.04-.31-.12-.75-.09-1.22-.1-.6.03-1.34-.36-1.3-1.07.44-1.74-.72-3.32-2.59-3.18-2.55.08-5.5,2.78-7.81.5-1.27-1.45-1.42-3.35-1.97-5.1-.87-3.43-1.88-7-2.61-10.47-.16-.91.22-1.82.38-2.68.18-.88-.39-1.6-.86-2.39-.53-.7-.19-1.84-.75-2.45-.52-.53-1.42-.69-2.27-.78-.31-.02-.44-.44-.2-.63.64-.53.68-1.74.09-2.36-.47-.47-1.31-.64-1.71-1.28-.6-.98.32-2.23-.17-3.15-.66-1.17-2.47-1.05-3.45-2.38-.44-.68-.5-1.46-.53-2.17-.03-.71-.05-1.42-.06-2.13,0,0,.29-.02.29-.02h0Z"/>
  </g>
  <g class="cls-3">
    <path class="cls-2" d="M378.55,184.04c-15.43,13.55-34.62,22.24-54.19,27.96-49.4,14.14-103.11,7.77-150.58-10.52C97.89,169.19,55.58,84.44,34.38,8.84c-2.69-9.87-5.08-19.84-6.86-29.92,0,0,.24-.04.24-.04,15.05,69.23,42.8,139.31,95.19,188.77,22.4,21.02,50.12,36.12,80.09,43,58.49,14.97,127.2,12.27,175.52-26.61h0Z"/>
  </g>
  <g class="cls-1">
    <path class="cls-2" d="M144.51,184.12c.95,1.02.27,3.4,1.9,3.61.7-.04,1.48-.76,2.28-.36.79.37,1.22,1.37.79,2.17,0,0-.02-.18-.02-.18.21.23.55.31.87.26.39-.04.6-.34.79-.61.6-.29.9.51,1.11.9.21.4.36.44.82.52,3.21.78,2.29,4.69,2.34,7.1.01,7.07,7.24,13.09,13.9,9.32,1.5-.81,2.71-2.04,3.73-3.44.56-.64,1.22-1.37,2.23-1.5.99-.11,2.22.47,2.23,1.64,0,0-.48-.33-.48-.33.34-.14.62-.44.75-.78.07-.19.28-.28.46-.22.8.27,1.35,1.02,1.38,1.86l-.28-.33c.22.05.53-.09.63-.3.13-.29.58-.22.63.08.1.42.17.85.25,1.27,0,0-.57-.05-.57-.05.33-.72.95-1.3,1.69-1.53.13-.04.27.05.28.19.04.57.09,1.14.12,1.71l-.24.03c-.12-.56-.22-1.12-.33-1.68,0,0,.3.18.3.18-.58.26-1.06.75-1.27,1.34-.06.15-.23.23-.38.18-.33-.19-.37-1.08-.51-1.48,0,0,.63.08.63.08-.17.52-1.48,1.11-1.65.36-.02-.52-.42-1.04-.91-1.18,0,0,.46-.22.46-.22-.12.47-1.26,1.67-1.65.98.04-.69-.65-1.28-1.52-1.26-.75,0-1.48.57-2.02,1.19-1.11,1.32-2.25,2.68-3.72,3.64-4.63,3.4-11.15.24-13.16-4.67-.73-1.59-1.14-3.29-1.33-5.03-.34-2.33.49-5.54-2.15-6.46-.2-.07-.45-.13-.7-.31-.47-.25-.57-1.58-.91-1.45,0,0,.09-.09.09-.09-.2.39-.61.61-1,.66-.38.07-1.21-.11-1.15-.53.35-.59-.08-1.43-.68-1.66-.62-.28-1.2.4-2.12.48-2.07-.1-1.39-2.8-2.14-3.9,0,0,.23-.19.23-.19h0Z"/>
  </g>
  <g class="cls-3">
    <path class="cls-2" d="M52.06-20.86c29.43,62.29,82.92,143.78,150.62,167.06,57.06,19.02,119.31,12.08,176.77-1.79-51.37,15.04-125.61,20.53-176.96,2.34-24.35-8.44-45.5-23.92-64.08-41.49-24.9-23.51-45.12-51.45-62.66-80.73-8.46-14.58-17.84-30.12-23.68-45.39h0Z"/>
  </g>
  <g class="cls-3">
    <path class="cls-2" d="M35.18-59.49C53.65,34.03,107.99,226.3,215.58,246.14c86.65,15.73,137.36-62.83,162.57-134.2,4.44-12.64,8.42-25.48,11.43-38.55,0,0,.24.05.24.05-5.86,26.21-14.94,51.68-26.5,75.91-22.6,47.17-61.89,95.2-117.71,99.1-11.74.93-23.61-.17-35.09-2.72-14.73-3.54-28.56-10.37-40.76-19.29C109.69,181.94,74.25,88.73,53.78,18.81c-3.75-12.89-7.27-25.84-10.44-38.88-3.13-13.05-6.04-26.16-8.45-39.37,0,0,.29-.05.29-.05h0Z"/>
  </g>
</svg>